<?xml version="1.0" encoding="UTF-8" standalone="no"?>
<svg
   xmlns:dc="http://purl.org/dc/elements/1.1/"
   xmlns:cc="http://creativecommons.org/ns#"
   xmlns:rdf="http://www.w3.org/1999/02/22-rdf-syntax-ns#"
   xmlns:svg="http://www.w3.org/2000/svg"
   xmlns="http://www.w3.org/2000/svg"
   xmlns:sodipodi="http://sodipodi.sourceforge.net/DTD/sodipodi-0.dtd"
   xmlns:inkscape="http://www.inkscape.org/namespaces/inkscape"
   version="1.1"
   id="svg2"
   xml:space="preserve"
   width="666.66669"
   height="666.66669"
   viewBox="0 0 666.66669 666.66669"
   sodipodi:docname="8KBBrains_IS.svg"
   inkscape:version="1.0.2 (e86c870879, 2021-01-15)"><metadata
     id="metadata8"><rdf:RDF><cc:Work
         rdf:about=""><dc:format>image/svg+xml</dc:format><dc:type
           rdf:resource="http://purl.org/dc/dcmitype/StillImage" /><dc:title></dc:title></cc:Work></rdf:RDF></metadata><defs
     id="defs6"><clipPath
       clipPathUnits="userSpaceOnUse"
       id="clipPath20"><path
         d="M 0,500 H 500 V 0 H 0 Z"
         id="path18" /></clipPath></defs><sodipodi:namedview
     pagecolor="#ffffff"
     bordercolor="#666666"
     borderopacity="1"
     objecttolerance="10"
     gridtolerance="10"
     guidetolerance="10"
     inkscape:pageopacity="0"
     inkscape:pageshadow="2"
     inkscape:window-width="1920"
     inkscape:window-height="1043"
     id="namedview4"
     showgrid="false"
     inkscape:zoom="1.9314467"
     inkscape:cx="369.52806"
     inkscape:cy="342.54049"
     inkscape:window-x="0"
     inkscape:window-y="0"
     inkscape:window-maximized="1"
     inkscape:current-layer="g10" /><g
     id="g10"
     inkscape:groupmode="layer"
     inkscape:label="vectorstock_8383137"
     transform="matrix(1.3333333,0,0,-1.3333333,0,666.66667)"><g
       id="g1739"
       transform="matrix(0.74966172,0,0,0.74966172,42.949967,56.150759)"><g
         id="g1355"
         transform="translate(-4.8333171,-1.6029929)"><g
           id="g22"
           transform="translate(338.6719,235.498)"><path
             d="m 0,0 c -0.275,0.479 -0.888,0.661 -1.364,0.387 -5.161,-2.958 -8.759,-7.162 -10.274,-11.9 -1.618,0.874 -3.552,1.316 -5.566,1.229 -0.552,-0.022 -0.982,-0.487 -0.96,-1.038 0.022,-0.553 0.526,-0.998 1.038,-0.96 1.99,0.067 3.844,-0.43 5.263,-1.429 1.336,-0.94 2.101,-2.338 2.154,-3.694 0.021,-0.538 0.464,-1.093 0.998,-1.093 h 0.04 c 0.552,0 0.982,0.619 0.96,1.17 -0.065,1.691 -0.849,3.317 -2.216,4.552 1.236,4.498 4.615,8.561 9.557,11.395 C 0.109,-1.106 0.275,-0.479 0,0 m 17.104,-4.664 c 0.081,-0.49 0.504,-0.838 0.986,-0.838 0.054,0 0.108,0.004 0.164,0.014 2.56,0.422 4.877,1.217 7.189,2.361 0.354,0.176 0.885,0.368 0.885,0.559 V -31.58 c 0,-4.829 -2.404,-8.908 -5.433,-8.908 -0.165,0 -0.249,0.014 -0.409,0.038 -0.287,0.043 -0.585,-0.043 -0.805,-0.233 -0.22,-0.19 -0.353,-0.466 -0.353,-0.756 v -7.293 c 0,-4.829 -2.224,-8.908 -4.914,-8.908 -2.687,0 -4.935,4.23 -4.935,9.074 -0.033,2.146 -0.528,21.068 -8.738,21.068 H 0.662 c -0.552,0 -0.993,-0.462 -0.985,-1.015 0.008,-0.547 0.454,-0.985 1,-0.985 h 0.058 c 0.98,0 1.826,-0.635 2.554,-1.449 -11.293,-7.207 -23.346,-8.289 -31.518,-2.671 -4.557,3.133 -7.656,8.032 -9.015,14.241 0.846,0.473 1.679,0.953 2.483,1.502 8.972,6.12 14.095,15.913 14.569,27.725 3.514,-1.794 7.36,-2.662 11.346,-2.662 13.325,0 28.193,9.523 37.288,25.322 2.344,4.069 4.186,8.341 5.476,12.7 0.26,0.88 0.482,1.764 0.697,2.647 C 44.255,28.194 39.836,6.16 24.709,-1.334 22.575,-2.392 20.294,-3.125 17.928,-3.516 17.383,-3.605 17.015,-4.119 17.104,-4.664 M -95.672,-69.262 c 0,-2.145 0.718,-3.958 2.001,-3.958 1.26,0 1.999,1.85 1.999,3.958 v 14.111 c -1,-0.611 -3,-1.073 -4,-1.389 z m -26,-0.016 v -4.978 c 0,-6.102 -4,-11.162 -8,-12.08 v -10.091 c 0,-6.533 2.815,-11.46 7,-11.46 4.186,0 7,4.927 7,11.46 v 23.157 c -2,0.185 -3.745,1.056 -5.206,2.51 -0.45,0.447 -0.794,0.944 -0.794,1.482 m 48.192,14.333 0.001,16.32 c -1.683,-3.508 -4.193,-6.865 -7.193,-9.779 v -36.573 c 0,-3.456 2.687,-6.267 6,-6.267 3.314,0 6,2.811 6,6.267 v 18.479 h 0.734 c -3.24,2 -5.538,6.262 -5.542,11.553 m 81.722,1.783 c -0.372,1.349 -0.736,2.843 -0.736,4.43 -0.054,3.492 -0.776,11.586 -3.091,15.974 -3.255,-2.081 -6.565,-3.67 -9.856,-4.76 0.043,-0.036 0.108,-0.058 0.151,-0.096 5.416,-4.808 5.57,-24.057 5.572,-24.874 0,-7.61 2.392,-12.463 3.986,-12.463 1.591,0 4.06,4.853 4.06,12.46 v 8.988 c 0,0.121 -0.125,0.233 -0.086,0.341 m -141.143,26.384 c -0.028,0.551 -0.516,0.981 -1.049,0.95 -1.969,-0.107 -3.847,0.39 -5.276,1.375 -1.346,0.927 -2.124,2.184 -2.191,3.541 -0.027,0.552 -0.496,0.982 -1.048,0.95 -0.551,-0.027 -0.976,-0.496 -0.95,-1.048 0.087,-1.758 0.942,-3.369 2.424,-4.61 -5.756,-10.087 -4.591,-20.844 3.431,-31.164 0.198,-0.254 0.493,-0.387 0.79,-0.387 0.215,0 0.431,0.068 0.614,0.21 0.436,0.34 0.514,0.968 0.176,1.403 -5.228,6.726 -9.965,17.134 -3.342,28.849 1.444,-0.735 3.125,-1.132 4.882,-1.132 0.195,0 0.392,0.005 0.589,0.015 0.552,0.027 0.976,0.497 0.95,1.048 m 82.861,128.557 c 0.311,0.457 0.191,1.079 -0.266,1.389 -0.456,0.309 -1.078,0.19 -1.388,-0.266 -1.95,-2.873 -5.057,-3.974 -8.521,-3.024 -1.716,0.47 -3.279,1.369 -4.541,2.514 -1.6587,1.9009 3e-4,-10e-5 -1.659,1.901 -0.812,1.207 -1.315,2.541 -1.398,3.881 -0.033,0.551 -0.508,0.971 -1.058,0.937 -0.552,-0.033 -0.971,-0.507 -0.938,-1.058 0.152,-2.496 1.464,-4.969 3.459,-6.889 2.122,-3.486 2.86,-7.685 2.07,-12.022 -0.919,-5.044 -3.782,-9.663 -8.061,-13.008 -3.98,-3.111 -8.742,-4.745 -13.499,-4.698 -0.548,2.445 -1.54,4.718 -3.017,6.721 -3.9,5.286 -10.506,8.043 -18.625,7.78 -7.884,-0.263 -16.278,-3.374 -23.671,-8.761 -0.112,0.066 -0.215,0.088 -0.331,0.15 -1.493,0.785 -3.231,1.176 -5.028,1.176 h -0.009 c -0.549,0 -0.996,-0.392 -1,-0.94 -0.005,-0.553 0.438,-0.979 0.99,-0.985 1.481,-0.014 2.903,-0.345 4.114,-0.983 1.924,-1.017 3.063,-2.508 3.046,-4.219 -0.005,-0.552 0.437,-0.873 0.99,-0.873 h 0.01 c 0.548,0 0.995,0.311 1,0.859 0.017,1.739 -0.75,3.317 -2.102,4.622 6.948,4.931 14.746,7.745 22.057,7.988 7.424,0.242 13.452,-2.244 16.949,-6.986 1.307,-1.771 2.189,-3.794 2.678,-5.971 -0.097,-0.144 -0.172,-0.308 -0.184,-0.493 -0.023,-0.363 0.162,-0.682 0.441,-0.875 0.833,-5.784 -1.015,-12.574 -5.437,-19.122 -0.914,-1.352 -1.928,-2.677 -3.016,-3.938 -1.908,-2.213 -4.083,-4.266 -6.455,-6.139 -0.049,0.121 -0.085,0.241 -0.14,0.361 -0.695,1.536 -1.808,2.938 -3.217,4.053 -0.433,0.343 -1.062,0.271 -1.405,-0.162 -0.343,-0.433 -0.27,-1.062 0.163,-1.405 1.161,-0.919 2.073,-2.065 2.638,-3.31 0.152,-0.338 0.265,-0.674 0.36,-1.008 -0.105,-0.302 -0.081,-0.642 0.122,-0.917 0.021,-0.029 0.054,-0.039 0.077,-0.065 0.149,-1.263 -0.123,-2.432 -0.826,-3.319 -0.343,-0.432 -0.271,-1.061 0.162,-1.404 0.184,-0.146 0.403,-0.217 0.621,-0.217 0.294,0 0.586,0.13 0.783,0.378 1.067,1.344 1.472,3.085 1.226,4.919 2.738,2.088 5.234,4.409 7.406,6.928 1.138,1.32 2.201,2.708 3.158,4.125 4.581,6.783 6.541,13.856 5.813,20.014 5.094,0.035 10.151,1.827 14.391,5.14 4.665,3.647 7.789,8.699 8.795,14.226 0.639,3.508 0.375,6.94 -0.725,10.053 0.731,-0.365 1.498,-0.67 2.294,-0.888 0.984,-0.27 1.954,-0.402 2.892,-0.402 3.145,0 5.947,1.482 7.812,4.232 M -160.914,3.524 c -0.116,0.539 -0.647,0.885 -1.188,0.768 -1.448,-0.31 -2.912,-0.285 -4.231,0.071 -2.102,0.572 -3.569,1.911 -3.926,3.584 -0.115,0.54 -0.648,0.892 -1.186,0.769 -0.54,-0.115 -0.885,-0.647 -0.77,-1.187 0.388,-1.819 1.618,-3.347 3.412,-4.322 -1.499,-6.141 -5.277,-10.78 -9.933,-12.145 -0.065,-0.019 -0.115,-0.061 -0.172,-0.091 -3.383,4.124 -7.96,7.059 -13.434,8.468 1.388,2.877 2.262,6.12 2.424,9.493 0.026,0.551 -0.399,1.02 -0.951,1.047 -0.523,0.033 -1.02,-0.4 -1.047,-0.952 -0.461,-9.606 -7.48,-18.357 -15.02,-18.725 -0.551,-0.028 -0.977,-0.397 -0.95,-0.948 0.027,-0.536 0.469,-0.852 0.998,-0.852 h 0.05 c 5.355,0 10.358,3.883 13.52,9.227 10.227,-2.428 17.184,-10.644 18.628,-21.971 1.334,-10.464 -2.716,-20.363 -9.849,-24.036 -0.491,-0.252 -0.685,-0.868 -0.432,-1.359 0.178,-0.344 0.528,-0.549 0.89,-0.549 0.154,0 0.311,0.033 0.457,0.109 7.867,4.05 12.356,14.758 10.918,26.04 -0.653,5.122 -2.373,9.635 -4.954,13.354 5.03,1.717 9.068,6.663 10.728,13.141 0.026,-0.008 0.049,-0.019 0.076,-0.025 0.878,-0.238 1.803,-0.356 2.746,-0.356 0.803,0 1.619,0.086 2.427,0.26 0.54,0.115 0.885,0.647 0.769,1.187 M -9.792,58.323 c -0.021,-0.552 0.41,-1.016 0.962,-1.037 0.259,-0.009 0.516,-0.014 0.769,-0.014 2.5,0 4.792,0.461 6.674,1.254 C 7.609,46.817 1.3,36.388 -5.664,29.661 c -0.398,-0.384 -0.408,-1.017 -0.024,-1.414 0.195,-0.204 0.457,-0.306 0.718,-0.306 0.25,0 0.501,0.094 0.695,0.281 10.701,10.337 12.308,21.121 4.69,31.249 1.845,1.194 3.014,2.794 3.132,4.615 0.036,0.552 -0.382,1.027 -0.933,1.063 C 2.04,65.183 1.587,64.767 1.551,64.216 1.363,61.343 -3.373,59.089 -8.756,59.285 -9.3,59.3 -9.772,58.875 -9.792,58.323 M -83.507,-48.208 c -9.106,-7.629 -20.204,-8.932 -29.757,-3.531 0.725,0.695 1.315,1.499 1.743,2.414 1.471,3.142 1.053,7.342 -1.148,11.521 -0.257,0.489 -0.861,0.675 -1.351,0.419 -0.489,-0.257 -0.676,-0.862 -0.419,-1.35 1.878,-3.568 2.292,-7.209 1.106,-9.743 -0.938,-2.005 -2.824,-3.324 -5.602,-3.918 -0.54,-0.115 -0.884,-0.646 -0.769,-1.186 0.101,-0.47 0.516,-0.791 0.977,-0.791 0.07,0 0.14,0.007 0.21,0.022 1.372,0.293 2.578,0.763 3.617,1.38 0.083,-0.133 0.187,-0.255 0.333,-0.339 3.867,-2.25 7.972,-3.467 12.111,-3.692 -0.659,-0.885 -1.336,-2.191 -2.188,-3.846 -2.264,-4.399 -5.365,-10.423 -9.679,-10.461 -2.051,0.011 -3.83,0.662 -5.142,1.967 -1.394,1.387 -2.158,3.479 -2.15,5.778 0.002,0.552 -0.444,1.066 -0.996,1.066 h -0.004 c -0.006,0 -0.01,-0.065 -0.016,-0.065 -0.133,0.065 -0.08,0.078 -0.238,0.078 -0.552,0 -0.803,-0.479 -0.803,-1.032 v -10.739 c 0,-5.387 -3.194,-9.805 -6.983,-10.204 -0.036,0.004 -0.166,0.022 -0.203,0.022 -0.079,0 -0.196,-0.028 -0.269,-0.044 -0.078,-0.004 -0.178,-0.017 -0.256,-0.017 -1.649,0 -3.223,0.758 -4.532,2.192 -0.279,0.306 -0.725,0.407 -1.109,0.259 -0.385,-0.149 -0.648,-0.519 -0.648,-0.932 v -8.393 c 0,-2.361 -1.387,-4.356 -3.032,-4.356 -1.645,0 -3.033,1.995 -3.037,4.264 0.398,4.314 2.131,25.96 -2.856,28.455 -0.493,0.244 -1.093,0.047 -1.341,-0.447 -0.247,-0.494 -0.046,-1.095 0.448,-1.342 0.562,-0.281 1.005,-1.129 1.349,-2.374 -7.174,1.027 -12.843,3.817 -16.034,7.923 -1.601,2.06 -2.777,4.419 -3.496,7.013 -3.551,12.8 4.301,29.773 19.096,41.274 9.612,7.473 20.823,11.657 30.962,11.649 -0.572,-1.368 -1.01,-2.791 -1.289,-4.269 -2.178,-11.526 6.316,-23.815 19.867,-28.999 -0.546,-1.186 -0.887,-2.5 -0.991,-3.868 -0.042,-0.551 0.37,-1.031 0.921,-1.073 0.025,-0.002 0.051,-0.003 0.077,-0.003 0.518,0 0.956,0.399 0.996,0.923 0.112,1.478 0.551,2.874 1.266,4.04 1.141,1.854 2.855,2.887 4.547,2.751 0.559,-0.041 1.031,0.371 1.073,0.921 0.042,0.551 -0.37,1.032 -0.92,1.074 -2.237,0.171 -4.395,-0.953 -5.93,-3.018 -12.844,4.77 -20.957,16.209 -18.941,26.881 1.147,6.07 5.12,11.188 11.187,14.511 6.131,3.357 13.654,4.945 21.184,2.945 h 0.008 c 0.461,-5 2.126,-9.959 5.052,-13.758 0.196,-0.256 0.493,-0.361 0.793,-0.361 0.213,0 0.428,0.081 0.609,0.221 0.438,0.337 0.519,0.972 0.182,1.41 -6.669,8.657 -6.367,23.217 0.701,33.863 6.071,9.144 15.443,12.838 25.717,10.129 0.528,-0.141 1.081,0.178 1.222,0.713 0.14,0.534 -0.178,1.081 -0.712,1.222 -4.938,1.302 -9.681,1.239 -14.007,-0.089 -0.017,0.052 -0.019,0.106 -0.045,0.156 -2.526,4.859 -0.139,12.11 6.376,19.591 1.356,-3.191 3.34,-5.869 5.866,-7.802 0.181,-0.139 0.395,-0.206 0.607,-0.206 0.301,0 0.598,0.135 0.795,0.392 0.336,0.439 0.252,1.066 -0.187,1.402 -3.752,2.871 -6.208,7.608 -6.914,13.339 -0.067,0.547 -0.563,0.935 -1.114,0.87 -0.549,-0.068 -0.938,-0.567 -0.87,-1.115 0.206,-1.668 0.559,-3.255 1.033,-4.756 -7.692,-8.472 -10.393,-16.655 -7.412,-22.536 -4.67,-1.888 -8.782,-5.323 -12.021,-10.2 -4.048,-6.096 -5.973,-13.416 -5.79,-20.329 -7.174,1.261 -14.336,0.385 -20.416,-2.478 -0.035,0.016 -0.062,0.044 -0.099,0.055 -3.278,1.052 -6.485,2.538 -9.534,4.419 -14.438,8.912 -21.231,24.19 -15.142,34.056 2.179,3.529 5.802,6.014 10.478,7.186 0.536,0.134 0.862,0.678 0.727,1.213 -0.133,0.536 -0.676,0.859 -1.213,0.727 -5.192,-1.301 -9.236,-4.093 -11.694,-8.075 -1.572,-2.548 -2.37,-5.415 -2.485,-8.43 -1.437,0.507 -2.685,1.317 -3.572,2.367 -1.055,1.248 -1.476,2.666 -1.184,3.991 0.119,0.54 -0.222,1.074 -0.761,1.192 -0.541,0.12 -1.073,-0.221 -1.192,-0.761 -0.275,-1.249 -0.134,-2.531 0.386,-3.748 -0.006,-0.009 -0.016,-0.014 -0.021,-0.024 -2.309,-4.121 -6.651,-7.224 -12.223,-8.735 -0.533,-0.145 -0.848,-0.695 -0.704,-1.227 0.121,-0.446 0.525,-0.739 0.965,-0.739 0.087,0 0.175,0.012 0.262,0.035 5.693,1.545 10.209,4.662 12.881,8.807 0.023,-0.027 0.04,-0.055 0.063,-0.082 1.261,-1.492 3.065,-2.607 5.129,-3.194 0.61,-9.257 7.339,-19.526 18.25,-26.26 2.667,-1.645 5.456,-2.984 8.305,-4.028 -4.041,-2.375 -7.17,-5.542 -9.188,-9.247 -10.822,0.297 -22.887,-4.089 -33.144,-12.063 -15.417,-11.984 -23.557,-29.826 -19.796,-43.387 0.339,-1.221 0.789,-2.385 1.311,-3.507 -0.151,-0.044 -0.297,-0.113 -0.418,-0.231 -5.01932,-5.676084 -11.70626,-5.966527 -18.02929,-6.713812 0.42861,2.696349 1.68229,4.243812 2.51129,4.243812 0.552,0 1,0.447 1,1 0,0.552 -0.448,1 -1,1 -4.772,0 -5.85,-14.236 -6.068,-18.648 0,-2.647 -2.647,-4.802 -5.902,-4.802 -0.673,0 -1.345,0.107 -2.056,0.326 -0.302,0.092 -0.696,0.036 -0.952,-0.152 -0.256,-0.188 -0.47,-0.487 -0.47,-0.805 v -15.293 c 0,-2.647 -1.542,-4.8 -3.5,-4.8 -1.958,0 -3.5,2.153 -3.5,4.8 v 23.627 c 0,0.302 -0.122,0.587 -0.357,0.778 -0.234,0.189 -0.535,0.263 -0.829,0.201 -0.199,-0.042 -0.36,-0.071 -0.512,-0.075 -0.619,0.014 -1.063,-0.428 -1.064,-1.001 0,-2.649 -1.661,-4.803 -3.619,-4.803 -1.958,0 -3.619,2.154 -3.619,4.803 v 31.387 c 3,-1.625 5.422,-2.499 8.173,-2.499 0.306,0 0.646,0.012 0.952,0.034 -0.116,-0.752 -0.162,-1.513 -0.162,-2.282 -0.001,-3.824 1.46,-7.499 4.209,-10.629 0.197,-0.224 0.478,-0.339 0.756,-0.339 0.234,0 0.472,0.082 0.661,0.249 0.416,0.364 0.458,0.996 0.093,1.411 -2.423,2.759 -3.703,5.977 -3.702,9.308 0,4.847 2.736,9.42 7.513,12.607 1.263,-0.931 2.821,-1.626 4.57,-1.943 0.06,-0.01 0.12,-0.015 0.179,-0.015 0.474,0 0.895,0.339 0.983,0.822 0.098,0.543 -0.262,1.064 -0.806,1.162 -3.914,0.708 -6.68,3.615 -6.163,6.48 0.098,0.544 -0.264,1.063 -0.807,1.162 -0.546,0.099 -1.063,-0.264 -1.162,-0.807 -0.35,-1.946 0.323,-3.891 1.691,-5.473 -3.692,-2.577 -6.231,-5.94 -7.349,-9.649 -5.81,-0.732 -12.185,3.47 -16.309,10.793 -4.372,7.762 -6.616,20.182 0.831,30.419 0.461,-1.315 1.039,-2.57 1.745,-3.738 0.188,-0.311 0.518,-0.483 0.857,-0.483 0.176,0 0.354,0.047 0.516,0.145 0.473,0.285 0.624,0.9 0.338,1.373 -3.634,6.009 -3.688,14.512 -0.142,22.189 2.936,6.356 7.877,10.901 13.464,12.513 0.438,-2.895 1.43,-5.736 2.978,-8.367 0.187,-0.317 0.52,-0.492 0.863,-0.492 0.173,0 0.347,0.045 0.506,0.138 0.477,0.28 0.635,0.893 0.355,1.369 -1.446,2.457 -2.357,5.11 -2.745,7.81 l -0.184,1.953 c -0.077,1.688 0.037,3.38 0.39,5.04 1.05,4.938 3.912,9.001 8.056,11.441 6.058,3.566 13.772,2.944 19.856,-1.52 -2.321,-2.317 -4.172,-5.036 -5.399,-8.055 -2.319,-5.701 -2.194,-11.741 0.351,-17.004 2.545,-5.264 7.201,-9.114 13.11,-10.837 2.201,-0.643 4.478,-0.961 6.768,-0.961 3.506,0 7.043,0.756 10.39,2.226 1.18,-5.658 -0.232,-11.221 -3.91,-15.309 -0.37,-0.41 -0.336,-1.043 0.074,-1.412 0.192,-0.172 0.43,-0.257 0.669,-0.257 0.274,0 0.546,0.111 0.743,0.331 4.185,4.65 5.757,10.99 4.314,17.395 -0.012,0.058 -0.047,0.102 -0.069,0.155 2.531,1.347 4.805,3.044 6.738,5.096 0.378,0.403 0.36,1.035 -0.043,1.413 -0.401,0.38 -1.035,0.361 -1.413,-0.042 -2.002,-2.125 -4.384,-3.864 -7.078,-5.167 -5.323,-2.573 -11.226,-3.125 -16.623,-1.548 -5.359,1.563 -9.574,5.039 -11.869,9.788 -2.296,4.747 -2.402,10.209 -0.299,15.381 2.117,5.206 6.215,9.491 11.538,12.065 0.498,0.24 0.706,0.838 0.466,1.335 -0.241,0.498 -0.838,0.706 -1.336,0.466 -2.061,-0.997 -3.945,-2.241 -5.632,-3.676 -5.149,3.914 -11.423,5.28 -17.151,3.937 -0.208,4.956 1.238,9.722 4.159,13.506 3.084,3.996 7.422,6.42 12.214,6.825 7.237,0.613 14.145,-3.564 17.594,-10.635 0.242,-0.495 0.841,-0.702 1.338,-0.46 0.496,0.242 0.702,0.841 0.46,1.337 -1.939,3.975 -4.879,7.114 -8.359,9.157 2.31,17.032 17.716,27.786 37.044,25.953 -0.463,-1.969 -0.633,-4.017 -0.455,-6.105 0.044,-0.521 0.481,-0.915 0.995,-0.915 0.028,0 0.057,0.001 0.086,0.003 0.55,0.047 0.958,0.531 0.912,1.081 -0.945,11.114 8.835,21.052 21.799,22.155 5.876,0.499 11.566,-0.887 16.179,-3.876 -3.112,-3.813 -4.746,-8.217 -4.36,-12.769 0.044,-0.522 0.481,-0.916 0.995,-0.916 0.029,0 0.057,10e-4 0.086,0.004 0.55,0.047 0.958,0.53 0.912,1.081 -0.943,11.113 11.728,21.298 28.246,22.703 16.523,1.412 30.724,-6.492 31.671,-17.607 0.045,-0.55 0.514,-0.951 1.081,-0.911 0.549,0.047 0.958,0.531 0.911,1.081 -0.394,4.625 -2.816,8.745 -6.627,12.001 1.954,-0.02 3.924,-0.137 5.881,-0.371 11.17,-1.338 21.252,-6.009 28.389,-13.155 7.074,-7.081 10.4,-15.747 9.364,-24.4 -0.066,-0.549 0.326,-1.047 0.874,-1.112 0.041,-0.005 0.081,-0.008 0.12,-0.008 0.499,0 0.93,0.373 0.992,0.881 0.365,3.051 0.219,6.098 -0.397,9.083 3.18,-0.336 6.147,-1.282 8.832,-2.828 C 31.344,79.242 35.873,66.635 33.426,51.946 33.417,51.894 33.403,51.84 33.395,51.788 33.077,51.496 32.976,51.039 33.166,50.639 32.852,49.021 32.478,47.393 32,45.777 30.755,41.567 28.975,37.438 26.71,33.505 15.166,13.459 -5.9,3.871 -20.253,12.134 c -0.022,0.012 -0.043,0.027 -0.065,0.041 -0.159,0.247 -0.413,0.415 -0.72,0.449 -13.641,8.647 -15.642,31.184 -4.316,50.854 1.552,2.696 3.312,5.261 5.23,7.623 0.348,0.429 0.283,1.059 -0.146,1.407 -0.43,0.349 -1.06,0.282 -1.407,-0.146 -1.786,-2.198 -3.428,-4.572 -4.91,-7.055 -0.55,4.385 -1.898,8.505 -3.919,12.096 0.009,0.152 -0.007,0.306 -0.072,0.454 -1.749,3.983 -0.85,8.012 2.468,11.055 3.914,3.588 9.847,4.664 13.802,2.503 0.485,-0.266 1.093,-0.087 1.358,0.398 0.264,0.484 0.086,1.092 -0.399,1.357 -4.672,2.555 -11.599,1.355 -16.113,-2.784 -2.696,-2.473 -4.056,-5.496 -4.003,-8.683 -0.045,0.053 -0.083,0.112 -0.128,0.165 -4.367,5.115 -9.991,7.776 -15.834,7.48 -0.552,-0.027 -0.976,-0.496 -0.949,-1.048 0.028,-0.551 0.497,-0.967 1.049,-0.949 5.212,0.264 10.258,-2.148 14.213,-6.782 4.018,-4.707 6.422,-11.127 6.767,-18.077 0.004,-0.079 0.035,-0.148 0.055,-0.221 -10.459,-20.035 -7.846,-42.385 6.129,-51.301 -0.183,-11.633 -5.031,-21.282 -13.725,-27.211 -7.772,-5.302 -17.818,-6.866 -25.929,-4.139 0.793,0.383 1.569,0.805 2.317,1.288 5.701,3.684 9.312,9.831 10.168,17.31 0.819,7.155 -0.992,14.709 -5.094,21.366 0.453,0.132 0.907,0.29 1.36,0.503 1.523,0.717 2.909,1.85 4.005,3.276 0.336,0.438 0.255,1.066 -0.183,1.403 -0.438,0.337 -1.066,0.254 -1.402,-0.184 -0.904,-1.175 -2.035,-2.103 -3.272,-2.685 -1.969,-0.928 -3.956,-0.856 -5.311,0.188 -0.438,0.339 -1.067,0.256 -1.402,-0.182 -0.337,-0.437 -0.256,-1.065 0.182,-1.402 1.082,-0.833 2.405,-1.254 3.822,-1.254 0.023,0 0.046,0.004 0.068,0.004 0.011,-0.018 0.011,-0.038 0.023,-0.056 4.159,-6.434 6.012,-13.803 5.218,-20.75 -0.787,-6.873 -4.078,-12.504 -9.268,-15.857 -3.588,-2.319 -7.797,-3.362 -12.23,-3.09 -0.006,10e-4 -0.012,10e-4 -0.018,0.002 -1.972,0.122 -3.988,0.504 -6.015,1.151 -6.546,2.092 -12.409,6.688 -16.556,12.954 0.048,0.05 0.098,0.095 0.146,0.147 1.459,1.608 2.374,3.817 2.577,6.222 0.046,0.549 -0.362,1.034 -0.913,1.08 -0.542,0.055 -1.033,-0.363 -1.08,-0.912 -0.166,-1.969 -0.9,-3.761 -2.066,-5.046 -1.098,-1.21 -2.448,-1.806 -3.801,-1.7 -0.554,0.062 -1.034,-0.361 -1.081,-0.911 -0.046,-0.55 0.362,-1.035 0.913,-1.081 0.168,-0.014 0.336,-0.021 0.503,-0.021 1.133,0 2.239,0.325 3.25,0.946 4.392,-6.557 10.581,-11.372 17.499,-13.583 1.958,-0.625 3.909,-1.016 5.828,-1.187 2.613,-8.146 -1.369,-18.639 -9.877,-25.767 m 44.439,27.836 c -4.562,-2.191 -9.565,-3.33 -14.419,-3.33 -3.531,0 -6.981,0.6 -10.126,1.833 -0.254,0.099 -0.444,0.319 -0.547,0.55 -2.308,-0.793 -4.752,-1.179 -7.277,-1.179 h -0.069 c 0.923,-3 0.861,-7.088 -0.06,-10.777 0.026,-0.088 0.055,-0.197 0.055,-0.294 l 0.017,-21.449 c 0.005,-5.759 2.987,-10.48 6.648,-10.48 h 0.004 c 1.665271,-0.08425 2.09419,0.536214 2.555,0.869 2.396,1.58 4.083,5.309 4.079,9.647 0.016,0.98 0.465,23.176 10.338,24.008 -0.002,0.008 -0.005,0.015 -0.007,0.023 -0.238,0.985 -0.301,2.009 -0.185,3.041 0.062,0.549 0.547,0.941 1.107,0.882 0.549,-0.063 0.943,-0.558 0.882,-1.107 -0.091,-0.799 -0.043,-1.589 0.139,-2.346 1.358,-5.623 9.724,-8.447 18.644,-6.297 0.086,0.02 0.167,0.046 0.252,0.067 -0.799,0.411 -1.58,0.857 -2.324,1.369 -4.852,3.335 -8.176,8.506 -9.706,14.97 m -5.604,-15.415 c -0.002,-0.02 -0.012,-0.147 -0.013,-0.166 l -1.163,-52.049 c 0,-2.285 -1.828,-4.144 -4.075,-4.144 -0.656,0 -1.306,0.175 -1.931,0.521 -0.31,0.17 -0.853,0.167 -1.16,-0.014 -0.304,-0.179 -0.658,-0.507 -0.658,-0.861 v -4.403 c 0,-2.286 -1.752,-4.146 -3.998,-4.146 -2.248,0 -4.002,1.86 -4.002,4.146 v 30.443 c 3,1.892 5.377,6.542 5.373,11.683 0.096,6.148 1.983,22.279 9.036,22.279 h 0.07 c 0.024,0 0.044,-0.208 0.067,-0.206 0.589,-1.118 1.421,-2.226 2.454,-3.083"
             style="fill:#ec7c79;fill-opacity:1;fill-rule:nonzero;stroke:none"
             id="path24"
             sodipodi:nodetypes="ccccsccssscccccscccssssssscssssscccccsccccccsssccscscsssccccccssscccccccccssscccccccccscccscccccccccccccccccccssccccssccccccccccccscccccccscccscccccsccccccccscccccccsscsccscccccsccccscccsccccccccccccccccsccccccccsscssscscsccssscccscscccccccscccscccccccsccccccccccscccccccccccccccccccsccccccsccccccccccccssscscsssssscsccsscscccscccccscccccccccsscccccsccccccccccscccscccccccccccccccccccccccscccccscccccccccccscccccccccccccccccccccccccccccccccccccccscccccsccccccccccccsccsscccccsccsccccsccccccccccccccccsccssssccsscc" /></g><g
           id="g26"
           transform="translate(204.7222,209.6699)"><path
             d="M 0,0 C -1.969,-0.106 -3.847,0.39 -5.276,1.375 -6.623,2.302 -7.4,3.56 -7.467,4.916 -7.494,5.468 -7.963,5.898 -8.515,5.866 -9.066,5.839 -9.492,5.37 -9.465,4.818 c 0.087,-1.757 0.942,-3.369 2.424,-4.61 -5.756,-10.087 -4.591,-20.844 3.431,-31.164 0.197,-0.254 0.492,-0.387 0.79,-0.387 0.215,0 0.431,0.069 0.613,0.21 0.436,0.34 0.515,0.968 0.176,1.404 -5.227,6.725 -9.964,17.133 -3.342,28.848 1.445,-0.735 3.125,-1.132 4.883,-1.132 0.195,0 0.392,0.005 0.589,0.015 0.551,0.027 0.976,0.497 0.949,1.048 C 1.021,-0.398 0.532,0.031 0,0 m 168.565,73.686 c -0.215,-0.884 -0.438,-1.768 -0.697,-2.647 -1.29,-4.36 -3.132,-8.632 -5.476,-12.701 -9.096,-15.799 -23.964,-25.321 -37.288,-25.321 -3.986,0 -7.832,0.867 -11.347,2.661 C 113.284,23.866 108.161,14.073 99.189,7.953 98.384,7.404 97.551,6.924 96.706,6.451 c 1.359,-6.209 4.458,-11.108 9.014,-14.241 8.173,-5.618 20.226,-4.536 31.519,2.671 -0.729,0.814 -1.574,1.449 -2.554,1.449 h -0.059 c -0.545,0 -0.992,0.439 -1,0.985 -0.007,0.553 0.434,1.015 0.986,1.015 h 0.079 c 8.21,0 8.705,-18.922 8.737,-21.068 0,-4.844 2.248,-9.074 4.936,-9.074 2.689,0 4.914,4.08 4.914,8.908 v 7.293 c 0,0.29 0.133,0.566 0.352,0.757 0.221,0.189 0.519,0.275 0.806,0.232 0.159,-0.024 0.244,-0.038 0.408,-0.038 3.03,0 5.434,4.079 5.434,8.908 V 23.26 c 0,-0.191 -0.531,-0.383 -0.885,-0.559 -2.312,-1.144 -4.629,-1.939 -7.189,-2.361 -0.056,-0.01 -0.111,-0.014 -0.164,-0.014 -0.482,0 -0.906,0.348 -0.986,0.838 -0.09,0.545 0.279,1.059 0.823,1.148 2.367,0.391 4.648,1.125 6.782,2.182 15.127,7.494 19.546,29.528 9.906,49.192 M 142.278,-27.675 c 0,0.121 -0.125,0.234 -0.086,0.341 -0.372,1.349 -0.736,2.843 -0.736,4.43 -0.054,3.492 -0.776,11.586 -3.091,15.974 -3.255,-2.081 -6.566,-3.67 -9.857,-4.759 0.043,-0.037 0.109,-0.059 0.152,-0.097 5.416,-4.808 5.57,-24.057 5.572,-24.874 0,-7.61 2.392,-12.463 3.985,-12.463 1.592,0 4.061,4.853 4.061,12.46 z m -35.366,16.792 c -0.799,0.411 -1.58,0.858 -2.325,1.369 -4.851,3.335 -8.175,8.506 -9.706,14.97 -4.561,-2.191 -9.564,-3.33 -14.419,-3.33 -3.53,0 -6.98,0.601 -10.126,1.833 -0.253,0.1 -0.443,0.319 -0.546,0.55 C 67.482,3.716 65.038,3.33 62.513,3.33 h -0.069 c 0.923,-3 0.861,-7.088 -0.061,-10.777 0.027,-0.088 0.056,-0.197 0.056,-0.294 l 0.017,-21.448 c 0.004,-5.76 2.987,-10.481 6.648,-10.481 h 0.004 c 0.496,0 0.976,0.124 1.441,0.287 0.756866,0.342779 0.58486,0.250756 1.114,0.582 2.396,1.58 4.083,5.309 4.079,9.647 0.015,0.98 0.465,23.176 10.338,24.008 -0.002,0.008 -0.005,0.015 -0.007,0.023 -0.239,0.985 -0.301,2.009 -0.185,3.041 0.062,0.549 0.547,0.941 1.107,0.882 0.548,-0.063 0.943,-0.558 0.881,-1.107 -0.09,-0.798 -0.043,-1.589 0.14,-2.346 1.358,-5.623 9.724,-8.447 18.644,-6.297 0.086,0.02 0.167,0.046 0.252,0.067 m -17.634,0.924 c -1.033,0.857 -1.865,1.965 -2.454,3.083 -0.024,-0.002 -0.043,0.206 -0.068,0.206 h -0.069 c -7.054,0 -8.94,-16.131 -9.036,-22.279 0.004,-5.141 -2.373,-9.791 -5.373,-11.683 v -30.443 c 0,-2.286 1.754,-4.146 4.002,-4.146 2.246,0 3.998,1.86 3.998,4.146 v 4.403 c 0,0.355 0.353,0.682 0.658,0.861 0.307,0.181 0.85,0.184 1.159,0.014 0.625,-0.346 1.276,-0.521 1.932,-0.521 2.247,0 4.075,1.859 4.075,4.144 l 1.163,52.049 c 0.001,0.02 0.011,0.146 0.013,0.166 M 66.011,-40.67 c -3.239,2 -5.537,6.262 -5.542,11.553 l 0.002,16.32 c -1.683,-3.508 -4.193,-6.865 -7.193,-9.779 v -36.572 c 0,-3.456 2.686,-6.268 6,-6.268 3.313,0 6,2.812 6,6.268 l 0.02302,19.397793 z M 60.32,3.387 c -1.919,0.172 -3.87,0.562 -5.828,1.187 -6.918,2.211 -13.107,7.027 -17.499,13.583 -1.011,-0.621 -2.117,-0.946 -3.25,-0.946 -0.167,0 -0.335,0.007 -0.504,0.021 -0.55,0.046 -0.958,0.531 -0.912,1.081 0.047,0.55 0.527,0.973 1.081,0.912 1.353,-0.107 2.703,0.489 3.801,1.699 1.166,1.285 1.899,3.077 2.065,5.046 0.047,0.55 0.539,0.967 1.081,0.912 0.55,-0.046 0.959,-0.53 0.913,-1.08 C 41.064,23.397 40.149,21.188 38.69,19.58 38.643,19.528 38.593,19.483 38.545,19.434 42.692,13.167 48.555,8.571 55.101,6.479 57.127,5.832 59.144,5.45 61.116,5.328 c 0.006,-0.001 0.011,-0.001 0.017,-0.002 4.434,-0.272 8.643,0.771 12.231,3.09 5.189,3.354 8.48,8.984 9.267,15.857 0.794,6.947 -1.058,14.316 -5.217,20.75 -0.012,0.018 -0.012,0.039 -0.023,0.056 -0.022,0 -0.046,-0.004 -0.068,-0.004 -1.417,0 -2.74,0.421 -3.823,1.254 -0.437,0.337 -0.518,0.965 -0.181,1.402 0.335,0.438 0.964,0.521 1.402,0.182 1.355,-1.044 3.342,-1.116 5.311,-0.187 1.237,0.581 2.368,1.509 3.271,2.684 0.337,0.438 0.965,0.521 1.403,0.184 0.438,-0.337 0.519,-0.965 0.183,-1.403 -1.097,-1.426 -2.482,-2.559 -4.006,-3.276 -0.452,-0.213 -0.906,-0.371 -1.359,-0.503 4.101,-6.657 5.913,-14.211 5.094,-21.366 C 83.762,16.567 80.151,10.42 74.45,6.736 73.702,6.253 72.925,5.831 72.132,5.448 80.244,2.721 90.29,4.285 98.062,9.587 c 8.693,5.93 13.542,15.578 13.725,27.211 -13.975,8.916 -16.588,31.266 -6.129,51.302 -0.021,0.072 -0.051,0.141 -0.055,0.22 -0.346,6.95 -2.749,13.37 -6.768,18.077 -3.955,4.634 -9.001,7.046 -14.212,6.782 -0.552,-0.018 -1.021,0.398 -1.049,0.949 -0.028,0.552 0.397,1.021 0.949,1.048 5.843,0.296 11.467,-2.364 15.834,-7.48 0.045,-0.053 0.083,-0.112 0.128,-0.165 -0.053,3.187 1.307,6.21 4.003,8.683 4.513,4.14 11.44,5.339 16.113,2.784 0.484,-0.265 0.663,-0.873 0.399,-1.357 -0.265,-0.485 -0.874,-0.664 -1.358,-0.398 -3.955,2.161 -9.889,1.085 -13.803,-2.503 -3.317,-3.043 -4.216,-7.072 -2.467,-11.054 0.065,-0.149 0.081,-0.303 0.072,-0.455 2.02,-3.591 3.369,-7.71 3.919,-12.096 1.481,2.483 3.124,4.857 4.91,7.055 0.347,0.428 0.977,0.495 1.407,0.146 0.429,-0.348 0.493,-0.978 0.146,-1.407 -1.918,-2.362 -3.678,-4.927 -5.231,-7.623 -11.325,-19.67 -9.324,-42.206 4.317,-50.854 0.306,-0.034 0.561,-0.202 0.719,-0.449 0.023,-0.014 0.043,-0.028 0.066,-0.041 14.352,-8.263 35.419,1.325 46.963,21.371 2.264,3.934 4.045,8.063 5.29,12.272 0.477,1.616 0.851,3.244 1.166,4.862 -0.191,0.4 -0.089,0.857 0.228,1.149 0.009,0.052 0.023,0.106 0.031,0.158 2.448,14.689 -2.082,27.296 -11.818,32.902 -2.685,1.546 -5.652,2.492 -8.832,2.828 0.615,-2.985 0.762,-6.032 0.397,-9.083 -0.062,-0.507 -0.494,-0.88 -0.993,-0.88 -0.039,0 -0.079,0.002 -0.12,0.007 -0.548,0.065 -0.939,0.563 -0.874,1.112 1.036,8.653 -2.289,17.319 -9.363,24.401 -7.138,7.145 -17.22,11.816 -28.39,13.154 -1.957,0.234 -3.926,0.351 -5.881,0.371 3.812,-3.256 6.234,-7.376 6.627,-12.001 0.047,-0.55 -0.361,-1.034 -0.911,-1.081 -0.566,-0.04 -1.035,0.361 -1.081,0.912 -0.946,11.114 -15.147,19.018 -31.671,17.606 -16.517,-1.405 -29.189,-11.589 -28.245,-22.703 0.046,-0.55 -0.362,-1.034 -0.912,-1.081 -0.029,-0.003 -0.058,-0.004 -0.086,-0.004 -0.514,0 -0.951,0.394 -0.995,0.916 -0.387,4.552 1.248,8.956 4.359,12.769 -4.612,2.989 -10.302,4.375 -16.178,3.876 -12.965,-1.103 -22.744,-11.041 -21.8,-22.155 0.047,-0.55 -0.361,-1.034 -0.912,-1.081 -0.029,-0.002 -0.057,-0.003 -0.085,-0.003 -0.514,0 -0.951,0.394 -0.996,0.915 -0.177,2.088 -0.007,4.136 0.455,6.105 -19.327,1.833 -34.734,-8.921 -37.044,-25.953 3.48,-2.043 6.421,-5.182 8.36,-9.157 0.242,-0.496 0.035,-1.095 -0.461,-1.337 -0.496,-0.242 -1.095,-0.035 -1.337,0.46 -3.449,7.071 -10.358,11.248 -17.594,10.635 -4.792,-0.405 -9.13,-2.828 -12.215,-6.825 -2.92,-3.784 -4.366,-8.55 -4.158,-13.506 5.728,1.343 12.002,-0.022 17.151,-3.936 1.686,1.434 3.57,2.678 5.632,3.675 0.497,0.24 1.095,0.032 1.335,-0.465 0.24,-0.498 0.032,-1.096 -0.465,-1.336 -5.323,-2.574 -9.421,-6.859 -11.539,-12.065 -2.103,-5.172 -1.996,-10.634 0.3,-15.381 2.295,-4.749 6.51,-8.225 11.869,-9.788 5.397,-1.576 11.3,-1.025 16.622,1.549 2.695,1.302 5.077,3.042 7.078,5.167 0.379,0.402 1.013,0.421 1.414,0.041 0.402,-0.377 0.421,-1.01 0.043,-1.413 -1.934,-2.052 -4.207,-3.749 -6.738,-5.096 0.022,-0.053 0.056,-0.097 0.069,-0.155 1.443,-6.405 -0.129,-12.745 -4.314,-17.395 -0.197,-0.22 -0.47,-0.331 -0.744,-0.331 -0.238,0 -0.477,0.085 -0.668,0.257 -0.411,0.369 -0.444,1.002 -0.074,1.412 3.678,4.088 5.09,9.651 3.909,15.309 -3.347,-1.47 -6.883,-2.226 -10.389,-2.226 -2.291,0 -4.567,0.318 -6.768,0.961 -5.909,1.723 -10.565,5.573 -13.11,10.837 -2.546,5.263 -2.67,11.303 -0.352,17.005 1.228,3.019 3.079,5.737 5.399,8.054 -6.084,4.464 -13.797,5.086 -19.855,1.52 -4.145,-2.44 -7.006,-6.503 -8.056,-11.441 -0.353,-1.66 -0.468,-3.352 -0.39,-5.04 l 0.184,-1.953 c 0.387,-2.7 1.298,-5.353 2.745,-7.809 0.28,-0.477 0.121,-1.09 -0.355,-1.37 -0.159,-0.093 -0.334,-0.138 -0.506,-0.138 -0.343,0 -0.676,0.176 -0.863,0.492 -1.549,2.631 -2.54,5.472 -2.978,8.367 -5.587,-1.612 -10.528,-6.157 -13.464,-12.513 -3.547,-7.677 -3.492,-16.18 0.142,-22.189 0.286,-0.473 0.135,-1.088 -0.338,-1.373 -0.162,-0.098 -0.34,-0.145 -0.517,-0.145 -0.338,0 -0.669,0.172 -0.856,0.483 -0.707,1.168 -1.284,2.423 -1.745,3.738 -7.448,-10.237 -5.203,-22.657 -0.831,-30.419 4.124,-7.323 10.499,-11.525 16.309,-10.793 1.117,3.709 3.657,7.072 7.348,9.649 -1.368,1.582 -2.041,3.527 -1.69,5.473 0.099,0.543 0.616,0.907 1.162,0.807 0.543,-0.099 0.904,-0.618 0.807,-1.162 -0.517,-2.864 2.248,-5.772 6.163,-6.48 0.543,-0.098 0.904,-0.619 0.805,-1.162 -0.087,-0.483 -0.508,-0.822 -0.982,-0.822 -0.06,0 -0.119,0.005 -0.18,0.016 -1.748,0.316 -3.306,1.011 -4.569,1.942 -4.777,-3.187 -7.514,-7.76 -7.514,-12.606 0,-3.332 1.28,-6.55 3.703,-9.309 0.364,-0.415 0.322,-1.047 -0.093,-1.411 -0.189,-0.167 -0.427,-0.249 -0.661,-0.249 -0.278,0 -0.559,0.115 -0.757,0.34 -2.748,3.13 -4.209,6.804 -4.209,10.629 0,0.768 0.047,1.529 0.163,2.281 -0.306,-0.022 -0.646,-0.033 -0.952,-0.033 -2.752,0 -5.173,0.874 -8.173,2.499 v -31.388 c 0,-2.649 1.661,-4.803 3.618,-4.803 1.958,0 3.62,2.154 3.62,4.803 10e-4,0.573 0.445,1.016 1.064,1.001 0.151,0.004 0.313,0.033 0.511,0.075 0.294,0.063 0.596,-0.012 0.83,-0.201 0.234,-0.191 0.357,-0.476 0.357,-0.777 v -23.627 c 0,-2.648 1.542,-4.801 3.499,-4.801 1.958,0 3.501,2.153 3.501,4.801 v 15.293 c 0,0.317 0.214,0.616 0.47,0.804 0.255,0.188 0.649,0.244 0.952,0.152 0.711,-0.219 1.383,-0.326 2.056,-0.326 3.254,0 5.902,2.155 5.902,4.802 0.218,4.412 1.296,18.648 6.068,18.648 0.552,0 1,-0.448 1,-1 0,-0.553 -0.448,-1 -1,-1 -1.079096,-0.58101 -1.380682,-1.227352 -2.28947,-3.925058 6.728,0 13.631472,2.332058 17.807472,6.395058 0.121,0.119 0.266,0.187 0.418,0.231 -0.522,1.122 -0.972,2.286 -1.311,3.507 -3.762,13.561 4.378,31.403 19.796,43.387 10.257,7.974 22.322,12.36 33.144,12.063 2.018,3.705 5.146,6.872 9.188,9.247 -2.85,1.044 -5.639,2.383 -8.305,4.028 -10.911,6.735 -17.64,17.003 -18.25,26.261 -2.064,0.586 -3.868,1.701 -5.129,3.193 -0.023,0.027 -0.041,0.056 -0.063,0.082 -2.672,-4.145 -7.189,-7.262 -12.881,-8.807 -0.087,-0.023 -0.176,-0.035 -0.262,-0.035 -0.441,0 -0.844,0.294 -0.965,0.739 -0.145,0.533 0.17,1.082 0.704,1.227 5.572,1.511 9.913,4.614 12.223,8.735 0.005,0.01 0.015,0.015 0.021,0.024 -0.52,1.217 -0.661,2.499 -0.386,3.748 0.119,0.54 0.651,0.881 1.192,0.761 0.539,-0.118 0.88,-0.652 0.761,-1.191 -0.292,-1.326 0.129,-2.744 1.183,-3.992 0.888,-1.05 2.136,-1.859 3.573,-2.367 0.114,3.015 0.913,5.882 2.485,8.43 2.458,3.982 6.501,6.774 11.694,8.076 0.536,0.131 1.079,-0.192 1.213,-0.727 0.134,-0.536 -0.191,-1.08 -0.727,-1.214 -4.676,-1.172 -8.3,-3.657 -10.478,-7.186 -6.089,-9.866 0.704,-25.143 15.142,-34.056 3.048,-1.88 6.256,-3.367 9.533,-4.419 0.038,-0.011 0.064,-0.039 0.099,-0.055 6.081,2.863 13.243,3.739 20.417,2.478 -0.184,6.913 1.742,14.233 5.79,20.329 3.238,4.877 7.351,8.312 12.02,10.2 -2.98,5.881 -0.28,14.064 7.413,22.536 -0.474,1.501 -0.828,3.088 -1.034,4.757 -0.067,0.547 0.322,1.046 0.871,1.114 0.55,0.065 1.046,-0.322 1.114,-0.87 0.706,-5.731 3.162,-10.468 6.914,-13.339 0.438,-0.336 0.522,-0.963 0.186,-1.402 -0.196,-0.257 -0.494,-0.392 -0.795,-0.392 -0.211,0 -0.425,0.067 -0.606,0.206 -2.526,1.933 -4.511,4.611 -5.866,7.802 -6.515,-7.481 -8.903,-14.732 -6.376,-19.591 0.026,-0.05 0.028,-0.104 0.045,-0.156 4.326,1.328 9.069,1.391 14.007,0.089 0.534,-0.141 0.852,-0.688 0.711,-1.222 -0.14,-0.535 -0.693,-0.854 -1.221,-0.713 C 74.171,73.543 64.799,69.849 58.729,60.706 51.661,50.06 51.359,35.499 58.028,26.842 c 0.337,-0.438 0.256,-1.072 -0.182,-1.409 -0.181,-0.141 -0.396,-0.222 -0.609,-0.222 -0.3,0 -0.597,0.105 -0.793,0.361 -2.926,3.799 -4.591,8.758 -5.052,13.758 H 51.383 C 43.854,41.33 36.331,39.742 30.2,36.385 24.132,33.063 20.16,27.944 19.013,21.874 16.997,11.202 25.109,-0.237 37.954,-5.007 c 1.534,2.066 3.693,3.189 5.93,3.018 0.55,-0.042 0.962,-0.523 0.92,-1.074 -0.042,-0.55 -0.514,-0.961 -1.074,-0.92 -1.691,0.135 -3.405,-0.898 -4.546,-2.752 -0.716,-1.165 -1.154,-2.562 -1.267,-4.039 -0.04,-0.525 -0.478,-0.924 -0.996,-0.924 -0.025,0 -0.051,0.001 -0.077,0.003 -0.55,0.042 -0.963,0.522 -0.921,1.073 0.105,1.368 0.446,2.683 0.992,3.868 -13.551,5.184 -22.045,17.473 -19.867,28.999 0.279,1.478 0.717,2.901 1.288,4.269 C 8.197,26.522 -3.013,22.338 -12.625,14.865 -27.42,3.364 -35.272,-13.608 -31.722,-26.409 c 0.72,-2.594 1.896,-4.953 3.496,-7.013 3.192,-4.106 8.86,-6.895 16.035,-7.923 -0.344,1.245 -0.788,2.093 -1.35,2.374 -0.494,0.247 -0.694,0.848 -0.447,1.342 0.247,0.494 0.848,0.691 1.341,0.447 4.986,-2.495 3.253,-24.141 2.855,-28.455 0.005,-2.269 1.393,-4.263 3.038,-4.263 1.645,0 3.032,1.994 3.032,4.355 v 8.393 c 0,0.413 0.263,0.783 0.648,0.932 0.384,0.148 0.83,0.047 1.109,-0.259 1.308,-1.434 2.883,-2.192 4.531,-2.192 0.079,0 0.179,0.013 0.257,0.017 0.073,0.016 0.19,0.044 0.268,0.044 0.037,0 0.167,-0.018 0.204,-0.022 3.788,0.4 6.983,4.818 6.983,10.204 v 10.74 c 0,0.552 0.251,1.031 0.803,1.031 0.158,0 0.105,-0.013 0.237,-0.077 0.006,0 0.011,0.064 0.017,0.064 h 0.003 c 0.553,0 0.999,-0.514 0.997,-1.066 -0.008,-2.299 0.755,-4.391 2.149,-5.778 1.313,-1.305 3.092,-1.956 5.143,-1.966 4.313,0.037 7.415,6.061 9.679,10.46 0.852,1.655 1.528,2.961 2.188,3.846 -4.14,0.225 -8.244,1.443 -12.112,3.693 -0.145,0.084 -0.25,0.205 -0.333,0.338 -1.039,-0.617 -2.244,-1.086 -3.616,-1.379 -0.07,-0.016 -0.141,-0.023 -0.21,-0.023 -0.462,0 -0.876,0.321 -0.977,0.791 -0.115,0.54 0.229,1.071 0.769,1.187 2.778,0.593 4.663,1.912 5.602,3.918 1.186,2.533 0.772,6.174 -1.106,9.742 -0.258,0.488 -0.07,1.094 0.419,1.35 0.49,0.256 1.093,0.07 1.35,-0.419 2.201,-4.179 2.62,-8.378 1.149,-11.521 -0.429,-0.915 -1.018,-1.719 -1.743,-2.414 9.553,-5.401 20.65,-4.098 29.757,3.531 8.508,7.128 12.49,17.621 9.877,25.767 m -18.042,-32.71 c -1,-0.611 -3,-1.073 -4,-1.389 v -12.722 c 0,-2.145 0.718,-3.958 2.001,-3.958 1.26,0 1.999,1.85 1.999,3.958 z m -24,-18.118 c -2,0.184 -3.745,1.055 -5.207,2.509 -0.449,0.447 -0.793,0.944 -0.793,1.482 v -4.978 c 0,-6.102 -4,-11.162 -8,-12.08 v -10.091 c 0,-6.533 2.814,-11.46 7,-11.46 4.185,0 7,4.927 7,11.46 z m 144,71.922 V -5.752 c 0,-5.938 -3,-10.628 -7,-10.896 v -6.256 c 0,-6.117 -2.855,-10.908 -6.757,-10.908 -1.705,0 -3.243,0.916 -4.243,2.455 v -5.306 c 0,-7.01 -2.227,-14.46 -6.062,-14.46 -3.836,0 -6.062,7.45 -6.062,14.46 -0.016,5.314 -0.919,19.882 -4.862,23.381 -0.603,0.536 -1.239,0.756 -1.936,0.676 -0.035,-0.005 -0.066,0.007 -0.101,0.006 -2.451,-0.571 -4.869,-0.872 -7.205,-0.872 -3.182,0 -6.217,0.539 -9,1.616 -0.089,-0.325 -0.324,-0.602 -0.67,-0.704 -0.413,-0.121 -0.838,-0.233 -1.265,-0.335 -2.147,-0.517 -4.279,-0.762 -6.302,-0.762 -3.661,0 -7.021,0.804 -9.617,2.253 l -1.177,-50.792 c 0,-3.366 -2.81,-6.122 -6.159,-6.122 -0.479,0 -0.582,0.059 -1.582,0.177 v -2.934 c 0,-3.389 -2.649,-6.146 -5.998,-6.146 -3.352,0 -6.002,2.757 -6.002,6.146 v 29.635 c 0,-0.101 -0.708,-0.23 -1.168,-0.23 h -0.006 c -0.64,0 -0.826,0.169 -1.826,0.359 v -17.837 c 0,-4.559 -3.583,-8.268 -8,-8.268 -4.417,0 -8,3.709 -8,8.268 v 34.828 c -2,-1.682 -4,-3.063 -7,-4.133 v -14.981 c 0,-3.34 -1.551,-5.958 -3.999,-5.958 -2.449,0 -4.001,2.618 -4.001,5.958 v 12.407 c -1,-0.065 -2.518219,-0.230436 -3.060219,-0.261436 L 30.884,-35.936 c -2.338,-4.541 -5.606,-10.653 -10.606,-11.455 v -23.208 c 0,-7.798 -3.587,-13.46 -9,-13.46 -5.413,0 -9,5.662 -9,13.46 v 9.971 c -2,0.1 -3,0.531 -4,1.297 v -6.214 c 0,-3.505 -2.256,-6.355 -5.032,-6.355 -2.777,0 -5.032,2.85 -5.032,6.355 0.657,7.165 0.889,16.61 0.026,22.126 -8.028,1.012 -14.427,4.113 -18.047,8.771 -0.606,0.78 -1.137,1.611 -1.631,2.465 -4.057143,-2.489573 -7.850738,-6.166313 -19.5359,-6.784371 -0.745,-3.204 -1.2021,-6.879629 -1.4011,-10.882629 0,-3.701 -3.576,-6.752 -7.933,-6.752 -0.444,0 -0.414,0.038 -1.414,0.111 v -14.034 c 0,-3.75 -2.44,-6.801 -5.501,-6.801 -3.06,0 -5.499,3.051 -5.499,6.801 v 19.29 c -1,-1.562 -2.641,-2.564 -4.394,-2.564 -3.06,0 -5.606,3.052 -5.606,6.803 v 31.846 c 0,0.880674 0,0 -0.0049,0.879162 -2.585,2.012 -4.482064,4.635838 -6.418064,8.072838 -4.844,8.599 -7.226,22.576 1.891,33.794 -1.275,5.581 -0.559,11.997 2.181,17.93 3.24,7.013 8.783,12.003 15.066,13.69 -0.118,1.957 0.011,3.924 0.421,5.852 1.168,5.494 4.363,10.021 8.997,12.749 1.038,0.611 2.123,1.099 3.234,1.493 -0.353,5.605 1.243,11.025 4.551,15.311 3.431,4.446 8.272,7.144 13.63,7.596 3.247,0.272 6.426,-0.325 9.321,-1.63 2.793,17.854 19.129,29.028 39.486,26.942 2.971,8.627 11.753,15.336 22.605,16.259 6.423,0.544 12.663,-1.012 17.694,-4.36 5.419,5.641 14.2,9.723 24.362,10.588 9.524,0.805 18.324,-1.37 24.571,-5.463 2.891004,0.114 5.833004,-0.002 8.754004,-0.353 11.612,-1.39 22.11,-6.265 29.563,-13.726 4.476,-4.48 7.52,-9.575 9.029,-14.92 3.729,-0.292 7.195,-1.343 10.325,-3.144 10.478,-6.034 15.361,-19.431 12.773,-34.965 -0.038,-0.228 -0.134,-0.459 -0.175,-0.688 0.361,-0.657 0.644,-1.317 0.976,-1.986 9.58,-19.339 6.168,-40.993 -7.832,-50.29 m -29.693,1.734 c -5.161,-2.958 -8.758,-7.162 -10.273,-11.9 -1.618,0.874 -3.553,1.316 -5.566,1.229 -0.552,-0.022 -0.982,-0.486 -0.96,-1.038 0.022,-0.553 0.526,-0.998 1.038,-0.96 1.99,0.067 3.843,-0.43 5.262,-1.429 1.336,-0.94 2.102,-2.338 2.155,-3.694 0.02,-0.538 0.464,-1.093 0.998,-1.093 h 0.04 c 0.552,0 0.981,0.619 0.96,1.17 -0.066,1.691 -0.849,3.317 -2.216,4.552 1.235,4.498 4.615,8.561 9.557,11.395 0.479,0.275 0.645,0.903 0.37,1.381 -0.276,0.48 -0.888,0.661 -1.365,0.387 M 83.644,128.996 c -0.456,0.309 -1.078,0.19 -1.389,-0.266 -1.949,-2.873 -5.056,-3.974 -8.52,-3.024 -1.716,0.47 -3.279,1.369 -4.541,2.514 -0.501763,0.80777 -3e-4,1e-4 -1.659,1.901 -0.812,1.207 -1.316,2.541 -1.398,3.881 -0.033,0.551 -0.509,0.971 -1.058,0.937 -0.552,-0.033 -0.971,-0.507 -0.938,-1.058 0.151,-2.496 1.464,-4.968 3.459,-6.889 2.122,-3.486 2.859,-7.685 2.069,-12.022 -0.919,-5.044 -3.781,-9.663 -8.06,-13.008 -3.981,-3.111 -8.742,-4.745 -13.499,-4.698 -0.548,2.445 -1.541,4.718 -3.018,6.721 -3.9,5.286 -10.505,8.043 -18.625,7.78 -7.884,-0.263 -16.278,-3.373 -23.67,-8.761 -0.112,0.066 -0.215,0.088 -0.332,0.15 -1.492,0.785 -3.23,1.176 -5.028,1.176 h -0.009 c -0.548,0 -0.995,-0.392 -1,-0.94 -0.005,-0.553 0.439,-0.979 0.991,-0.985 1.48,-0.013 2.903,-0.345 4.113,-0.983 1.925,-1.017 3.064,-2.508 3.047,-4.218 C 4.573,96.651 5.016,96.33 5.568,96.33 h 0.011 c 0.547,0 0.994,0.311 1,0.859 0.017,1.739 -0.75,3.317 -2.102,4.622 6.947,4.931 14.746,7.745 22.057,7.988 7.424,0.242 13.452,-2.244 16.949,-6.986 1.307,-1.771 2.189,-3.794 2.678,-5.971 -0.098,-0.144 -0.172,-0.308 -0.184,-0.492 -0.023,-0.364 0.162,-0.683 0.44,-0.875 C 47.25,89.69 45.402,82.9 40.98,76.353 40.067,75 39.052,73.675 37.965,72.414 c -1.908,-2.213 -4.084,-4.266 -6.456,-6.139 -0.048,0.121 -0.085,0.241 -0.139,0.361 -0.696,1.536 -1.808,2.938 -3.217,4.053 -0.433,0.343 -1.062,0.271 -1.405,-0.162 -0.343,-0.433 -0.27,-1.062 0.163,-1.405 1.16,-0.919 2.072,-2.064 2.637,-3.31 0.153,-0.337 0.266,-0.674 0.361,-1.008 -0.105,-0.302 -0.081,-0.641 0.122,-0.917 0.021,-0.029 0.054,-0.039 0.077,-0.065 0.149,-1.263 -0.124,-2.432 -0.826,-3.319 -0.344,-0.432 -0.271,-1.061 0.161,-1.404 0.184,-0.146 0.404,-0.217 0.621,-0.217 0.295,0 0.587,0.13 0.784,0.378 1.067,1.344 1.472,3.085 1.225,4.919 2.739,2.089 5.235,4.409 7.406,6.928 1.139,1.32 2.202,2.708 3.159,4.125 4.58,6.783 6.54,13.856 5.813,20.015 5.093,0.034 10.151,1.826 14.39,5.139 4.665,3.647 7.789,8.699 8.796,14.226 0.639,3.508 0.375,6.94 -0.725,10.053 0.731,-0.365 1.498,-0.669 2.294,-0.888 0.984,-0.27 1.954,-0.402 2.892,-0.402 3.145,0 5.946,1.482 7.812,4.232 0.31,0.457 0.191,1.079 -0.266,1.389 M 125.12,83.114 c 0.258,-0.009 0.515,-0.014 0.769,-0.014 2.5,0 4.792,0.462 6.674,1.254 8.996,-11.709 2.687,-22.138 -4.277,-28.865 -0.398,-0.384 -0.409,-1.017 -0.025,-1.414 0.196,-0.203 0.457,-0.305 0.719,-0.305 0.25,0 0.501,0.093 0.694,0.28 10.701,10.337 12.309,21.121 4.691,31.249 1.844,1.194 3.013,2.794 3.132,4.616 0.036,0.551 -0.382,1.026 -0.933,1.063 -0.574,0.033 -1.027,-0.383 -1.064,-0.934 -0.187,-2.873 -4.923,-5.127 -10.306,-4.931 -0.544,0.015 -1.017,-0.41 -1.036,-0.962 -0.021,-0.552 0.41,-1.016 0.962,-1.037 M -26.964,29.353 c 0.115,-0.541 -0.229,-1.073 -0.769,-1.188 -0.809,-0.174 -1.624,-0.26 -2.428,-0.26 -0.942,0 -1.867,0.118 -2.746,0.356 -0.026,0.007 -0.049,0.017 -0.075,0.025 -1.66,-6.477 -5.699,-11.424 -10.728,-13.14 2.581,-3.72 4.3,-8.233 4.954,-13.355 1.438,-11.282 -3.051,-21.99 -10.918,-26.04 -0.146,-0.076 -0.303,-0.108 -0.457,-0.108 -0.363,0 -0.712,0.204 -0.89,0.548 -0.253,0.492 -0.06,1.107 0.432,1.359 7.133,3.673 11.183,13.572 9.849,24.036 -1.445,11.327 -8.402,19.543 -18.628,21.971 -3.163,-5.344 -8.166,-9.227 -13.52,-9.227 h -0.05 c -0.53,0 -0.972,0.316 -0.998,0.852 -0.027,0.551 0.398,0.921 0.95,0.948 7.54,0.368 14.558,9.119 15.02,18.725 0.027,0.552 0.524,0.985 1.047,0.952 0.551,-0.027 0.977,-0.495 0.951,-1.047 -0.162,-3.373 -1.036,-6.615 -2.425,-9.492 5.475,-1.41 10.052,-4.345 13.435,-8.469 0.057,0.03 0.106,0.072 0.171,0.091 4.657,1.365 8.434,6.005 9.933,12.145 -1.793,0.975 -3.023,2.503 -3.411,4.322 -0.115,0.54 0.229,1.072 0.769,1.187 0.539,0.123 1.072,-0.229 1.187,-0.769 0.357,-1.672 1.824,-3.012 3.925,-3.584 1.32,-0.356 2.784,-0.38 4.232,-0.071 0.541,0.117 1.071,-0.228 1.188,-0.767"
             style="fill:#231f20;fill-opacity:1;fill-rule:nonzero;stroke:none"
             id="path28"
             sodipodi:nodetypes="cccccccscccscsccccscccccsscsscsssccsscccsccccsccccccssscccsccsccccsscccccccccccccssccssssccscccccccssscccccscccsccccccccccccscccccsccccccccccccscccccccccccccccccccccccsccscccccccccccscccccscccssccccccccccccccccccscccscccccsccccscccscsccccccccccsccsccscscscssccccsssssccscsscccccccccccccscccccccccccccsccccccccccccsccscccccccsccccccsscccscccccccccssccsssccscscssscssccccccccsccccccccccccsssccccscsssccscsscssccccscccsccscssscsscsssccsssccccsssccssccccccscssscsssccccccccccccccccccccsccccccscccsscccccccccccccccccccccssscccssccccccccccccscccccccscccccccccscccscccsccscccccccssccccsccccssccccccccccccccc" /></g><g
           id="g30"
           transform="translate(115.8711,223.5)"><path
             d="m 0,0 c -0.549,-5.523 0.142,-10.529 2.582,-15.536 1.956,-4.016 6.27,-8.936 10.869,-9.609 0.61,-0.088 1.183,0.61 0.65,1.118 -3.507,3.336 -7.27,5.034 -9.856,9.464 C 1.749,-10.287 0.882,-4.841 0.258,0 0.237,0.164 0.017,0.168 0,0"
             style="fill:#ffffff;fill-opacity:1;fill-rule:nonzero;stroke:none"
             id="path32" /></g><g
           id="g34"
           transform="translate(123.4336,252.5664)"><path
             d="m 0,0 c -2.229,-2.355 -2.892,-4.631 -2.996,-7.896 -0.067,-2.113 0.075,-6.334 2.413,-7.212 0.366,-0.138 0.687,0.208 0.712,0.542 0.071,0.956 -0.407,1.648 -0.717,2.551 -0.452,1.317 -0.537,2.739 -0.571,4.119 -0.053,2.174 0.171,5.828 1.306,7.782 C 0.201,-0.022 0.074,0.078 0,0"
             style="fill:#ffffff;fill-opacity:1;fill-rule:nonzero;stroke:none"
             id="path36" /></g><g
           id="g38"
           transform="translate(141.3989,277.0591)"><path
             d="m 0,0 c -1.476,-2.144 -1.729,-4.667 -1.666,-7.214 0.048,-1.933 0.055,-5.356 1.841,-6.574 0.537,-0.365 1.276,0.121 1.27,0.729 -0.018,1.884 -1.023,3.925 -1.249,5.845 -0.249,2.105 -0.74,5.089 0.018,7.124 C 0.263,0.042 0.071,0.103 0,0"
             style="fill:#ffffff;fill-opacity:1;fill-rule:nonzero;stroke:none"
             id="path40" /></g><g
           id="g42"
           transform="translate(167.3921,281.6079)"><path
             d="m 0,0 c -3.849,-4.41 -5.757,-10.416 -5.423,-16.242 0.232,-4.055 3.021,-10.089 7.387,-10.886 0.455,-0.082 0.855,0.354 0.609,0.792 -1.86,3.314 -4.704,5.143 -5.865,9.081 -1.811,6.138 1.153,11.626 3.531,17.07 C 0.303,-0.039 0.124,0.141 0,0"
             style="fill:#ffffff;fill-opacity:1;fill-rule:nonzero;stroke:none"
             id="path44" /></g><g
           id="g46"
           transform="translate(142.8877,209.6924)"><path
             d="m 0,0 c -0.371,-0.192 -0.495,-0.301 -0.646,-0.679 0.125,0.312 -0.147,-0.28 -0.147,-0.278 -0.052,-0.241 -0.048,-0.096 -0.132,-0.4 -0.16,-0.581 0.141,-1.338 0.416,-1.839 0.729,-1.33 2.547,-2.031 3.92,-1.364 0.712,0.346 0.597,1.367 0,1.742 C 2.72,-2.385 1.784,-2.415 1.227,-1.856 0.993,-1.621 1,-1.146 0.72,-0.923 0.819,-1.148 0.834,-1.159 0.768,-0.957 0.731,-0.862 0.691,-0.77 0.645,-0.679 0.583,-0.391 0.466,-0.261 0.27,-0.035 0.203,0.043 0.084,0.044 0,0"
             style="fill:#ffffff;fill-opacity:1;fill-rule:nonzero;stroke:none"
             id="path48" /></g><g
           id="g50"
           transform="translate(168.2017,237.2979)"><path
             d="m 0,0 c -0.772,-0.896 -1.304,-1.842 -1.888,-2.866 -0.335,-0.59 -0.672,-1.133 -1.132,-1.637 -0.487,-0.534 -1.078,-0.903 -1.258,-1.636 -0.073,-0.297 0.091,-0.673 0.418,-0.735 1.432,-0.275 2.459,1.157 3.154,2.222 0.852,1.301 1.122,2.75 1.411,4.242 C 0.779,-0.031 0.299,0.348 0,0"
             style="fill:#ffffff;fill-opacity:1;fill-rule:nonzero;stroke:none"
             id="path52" /></g><g
           id="g54"
           transform="translate(144.8418,247.5439)"><path
             d="m 0,0 c -0.687,-2.396 -1.038,-4.855 -1.773,-7.242 -0.764,-2.475 -2.442,-4.719 -2.69,-7.302 -0.055,-0.573 0.698,-0.775 1.06,-0.439 1.895,1.759 2.675,4.837 3.368,7.262 C 0.701,-5.142 0.968,-2.607 0.316,0 0.276,0.16 0.044,0.152 0,0"
             style="fill:#ffffff;fill-opacity:1;fill-rule:nonzero;stroke:none"
             id="path56" /></g><g
           id="g58"
           transform="translate(163.5649,306.1113)"><path
             d="m 0,0 c -3.195,1.481 -5.97,-0.024 -8.236,-2.586 -1.724,-1.949 -4.872,-7.426 -3.118,-9.987 0.416,-0.608 1.153,-0.559 1.578,0 0.714,0.942 0.618,2.344 0.899,3.472 0.364,1.466 1.04,2.813 1.839,4.084 1.504,2.39 4.214,4.243 7.007,4.781 C 0.075,-0.215 0.1,-0.046 0,0"
             style="fill:#ffffff;fill-opacity:1;fill-rule:nonzero;stroke:none"
             id="path60" /></g><g
           id="g62"
           transform="translate(189.4409,326.2148)"><path
             d="m 0,0 c -2.631,-0.793 -4.186,-2.616 -5.54,-4.936 -0.795,-1.364 -1.362,-2.856 -1.953,-4.315 -0.588,-1.449 -1.554,-2.879 -1.51,-4.464 0.01,-0.384 0.486,-0.757 0.846,-0.486 1.778,1.343 2.348,4.372 3.188,6.361 1.223,2.898 2.787,5.39 5.185,7.468 C 0.388,-0.224 0.207,0.062 0,0"
             style="fill:#ffffff;fill-opacity:1;fill-rule:nonzero;stroke:none"
             id="path64" /></g><g
           id="g66"
           transform="translate(186.9585,278.4292)"><path
             d="m 0,0 c 1.045,-0.555 1.687,-1.06 2.914,-1.183 1.053,-0.106 2.34,0.32 3.27,0.769 1.648,0.795 4.096,2.529 3.81,4.609 C 9.952,4.499 9.539,4.617 9.305,4.476 7.944,3.655 7.251,2.089 5.792,1.239 4.396,0.425 1.683,-0.246 0.063,0.15 -0.025,0.171 -0.084,0.045 0,0"
             style="fill:#ffffff;fill-opacity:1;fill-rule:nonzero;stroke:none"
             id="path68" /></g><g
           id="g70"
           transform="translate(197.5996,314.4004)"><path
             d="M 0,0 C 1.11,1.394 3.611,1.572 5.249,1.724 6.902,1.877 8.333,1.044 9.9,1.061 10.236,1.064 10.533,1.405 10.42,1.743 9.726,3.826 6.485,3.684 4.766,3.465 2.6,3.189 0.867,2.024 -0.221,0.17 -0.3,0.036 -0.102,-0.127 0,0"
             style="fill:#ffffff;fill-opacity:1;fill-rule:nonzero;stroke:none"
             id="path72" /></g><g
           id="g74"
           transform="translate(217.7148,327.9409)"><path
             d="M 0,0 C 0.562,2 1.22,4.06 1.953,6.004 2.719,8.033 3.98,9.768 4.821,11.746 5.061,12.308 4.564,12.897 3.972,12.595 0.058,10.604 -1.304,3.865 -0.43,0 -0.38,-0.22 -0.058,-0.206 0,0"
             style="fill:#ffffff;fill-opacity:1;fill-rule:nonzero;stroke:none"
             id="path76" /></g><g
           id="g78"
           transform="translate(252.457,334)"><path
             d="M 0,0 C 0.627,4.796 2.949,8.561 5.806,12.346 5.998,12.601 5.636,12.906 5.39,12.763 1.597,10.558 -1.18,4.291 -0.914,0 -0.876,-0.603 -0.075,-0.572 0,0"
             style="fill:#ffffff;fill-opacity:1;fill-rule:nonzero;stroke:none"
             id="path80" /></g><g
           id="g82"
           transform="translate(270.3867,336.9687)"><path
             d="m 0,0 c 0.681,-2.984 0.69,-6.341 0.489,-9.382 -0.27,-4.095 -2.364,-7.145 -3.902,-10.779 -0.274,-0.647 0.398,-1.182 0.957,-0.738 5.953,4.719 5.61,14.86 2.671,20.989 C 0.154,0.215 -0.028,0.125 0,0"
             style="fill:#ffffff;fill-opacity:1;fill-rule:nonzero;stroke:none"
             id="path84" /></g><g
           id="g86"
           transform="translate(272.7402,349.0718)"><path
             d="M 0,0 C -0.916,-2.57 -0.486,-6.771 2.589,-7.693 3.168,-7.867 3.55,-7.229 3.316,-6.747 2.73,-5.532 1.791,-4.66 1.396,-3.332 1.065,-2.224 0.911,-1.094 0.52,0 0.428,0.256 0.091,0.256 0,0"
             style="fill:#ffffff;fill-opacity:1;fill-rule:nonzero;stroke:none"
             id="path88" /></g><g
           id="g90"
           transform="translate(286.0293,326.4468)"><path
             d="M 0,0 C 1.536,-0.504 3.194,-0.544 4.79,-0.71 5.562,-0.791 8.557,-1.449 8.784,-0.171 9.325,2.87 1.901,2.041 0.291,2.15 -0.993,2.237 -1.126,0.369 0,0"
             style="fill:#ffffff;fill-opacity:1;fill-rule:nonzero;stroke:none"
             id="path92" /></g><g
           id="g94"
           transform="translate(279.5,304.3164)"><path
             d="m 0,0 c -0.976,0.019 -1.472,0.022 -2.354,-0.559 -0.83,-0.546 -1.46,-1.484 -2.031,-2.279 -1.277,-1.783 -2.575,-4.22 -2.478,-6.478 0.012,-0.291 0.402,-0.516 0.62,-0.257 1.139,1.352 1.814,3.081 2.656,4.625 0.792,1.452 2.203,3.578 3.747,4.358 C 0.451,-0.442 0.3,-0.006 0,0"
             style="fill:#ffffff;fill-opacity:1;fill-rule:nonzero;stroke:none"
             id="path96" /></g><g
           id="g98"
           transform="translate(247.9087,296.0913)"><path
             d="m 0,0 c -1.683,-1.874 -2.868,-4.151 -4.263,-6.238 -1.672,-2.501 -3.413,-4.95 -4.587,-7.732 -0.185,-0.44 0.465,-0.746 0.765,-0.445 1.913,1.931 3.359,4.165 4.809,6.453 1.491,2.355 3.114,5.033 3.492,7.837 C 0.231,-0.011 0.097,0.107 0,0"
             style="fill:#ffffff;fill-opacity:1;fill-rule:nonzero;stroke:none"
             id="path100" /></g><g
           id="g102"
           transform="translate(126.8945,181.5)"><path
             d="m 0,0 c -0.685,-6.346 -0.874,-12.623 -0.961,-19 -0.019,-1.375 2.152,-1.375 2.133,0 C 1.084,-12.623 0.896,-6.346 0.211,0 0.196,0.136 0.015,0.136 0,0"
             style="fill:#ffffff;fill-opacity:1;fill-rule:nonzero;stroke:none"
             id="path104" /></g><g
           id="g106"
           transform="translate(136.8242,153.5)"><path
             d="m 0,0 c -0.308,-2.848 -0.46,-5.669 -0.578,-8.535 -0.085,-2.086 -1,-4.986 0.025,-6.891 0.296,-0.549 1.162,-0.549 1.457,0 0.915,1.699 0.205,4.111 0.063,5.961 C 0.725,-6.302 0.693,-3.156 0.352,0 0.327,0.227 0.024,0.227 0,0"
             style="fill:#ffffff;fill-opacity:1;fill-rule:nonzero;stroke:none"
             id="path108" /></g><g
           id="g110"
           transform="translate(152.4292,178.1211)"><path
             d="m 0,0 c -2.54,-1.654 -3.371,-4.207 -3.686,-7.142 -0.419,-3.921 -1.028,-8.07 -1.189,-11.979 -0.015,-0.375 0.506,-0.608 0.761,-0.315 1.689,1.942 1.551,5.005 1.651,7.445 0.166,4.06 -0.033,8.397 2.633,11.77 C 0.262,-0.104 0.145,0.095 0,0"
             style="fill:#ffffff;fill-opacity:1;fill-rule:nonzero;stroke:none"
             id="path112" /></g><g
           id="g114"
           transform="translate(178.8687,205.5771)"><path
             d="m 0,0 c -3.277,-4.364 -4.64,-9.354 -5.009,-14.762 -0.304,-4.447 0.29,-11.039 4.457,-13.629 0.267,-0.166 0.629,0.108 0.533,0.411 -1.46,4.653 -3.182,8.157 -3.15,13.218 0.03,4.883 1.357,10.184 3.432,14.608 C 0.348,0.026 0.117,0.156 0,0"
             style="fill:#ffffff;fill-opacity:1;fill-rule:nonzero;stroke:none"
             id="path116" /></g><g
           id="g118"
           transform="translate(188.3579,176.2568)"><path
             d="m 0,0 c 10.952,-5.067 8.628,-23.185 9.873,-33.257 0.043,-0.347 0.495,-0.346 0.539,0 0.92,7.307 0.791,14.898 -0.619,22.126 C 8.985,-6.984 6.141,2.513 0.067,0.515 -0.143,0.445 -0.237,0.11 0,0"
             style="fill:#ffffff;fill-opacity:1;fill-rule:nonzero;stroke:none"
             id="path120" /></g><g
           id="g122"
           transform="translate(194.9233,218.6318)"><path
             d="m 0,0 c -1.214,-0.86 -1.855,-2.061 -2.16,-3.509 -0.294,-1.396 -0.603,-3.664 0.251,-4.907 0.244,-0.355 0.729,-0.366 0.972,0 0.618,0.937 0.374,2.262 0.346,3.329 -0.045,1.688 -0.052,3.362 0.799,4.878 C 0.278,-0.084 0.13,0.092 0,0"
             style="fill:#ffffff;fill-opacity:1;fill-rule:nonzero;stroke:none"
             id="path124" /></g><g
           id="g126"
           transform="translate(211.5,231.3008)"><path
             d="m 0,0 c 2.397,-0.028 5.435,-1.012 7.708,-0.058 0.743,0.312 0.744,1.204 0,1.514 C 5.332,2.451 2.178,1.273 -0.053,0.392 -0.254,0.312 -0.238,0.003 0,0"
             style="fill:#ffffff;fill-opacity:1;fill-rule:nonzero;stroke:none"
             id="path128" /></g><g
           id="g130"
           transform="translate(187.8179,242.6064)"><path
             d="m 0,0 c -1.323,-2.141 -2.519,-4.35 -3.898,-6.457 -1.548,-2.364 -3.865,-4.187 -5.179,-6.706 -0.373,-0.715 0.439,-1.76 1.202,-1.202 2.159,1.576 3.573,4.001 4.827,6.321 1.384,2.563 2.761,5.028 3.434,7.882 C 0.44,0.071 0.127,0.206 0,0"
             style="fill:#ffffff;fill-opacity:1;fill-rule:nonzero;stroke:none"
             id="path132" /></g><g
           id="g134"
           transform="translate(214.3687,287.5767)"><path
             d="m 0,0 c -3.299,-5.041 -4.358,-13.837 0.308,-18.4 0.32,-0.313 0.9,-0.002 0.764,0.445 -0.959,3.152 -2.104,5.668 -2.087,9.066 0.015,2.967 1.003,5.866 1.299,8.812 C 0.3,0.085 0.076,0.116 0,0"
             style="fill:#ffffff;fill-opacity:1;fill-rule:nonzero;stroke:none"
             id="path136" /></g><g
           id="g138"
           transform="translate(229.5,237.9502)"><path
             d="M 0,0 C 0.064,0 0.064,0.1 0,0.1 -0.064,0.1 -0.064,0 0,0"
             style="fill:#ffffff;fill-opacity:1;fill-rule:nonzero;stroke:none"
             id="path140" /></g><g
           id="g142"
           transform="translate(241,246.6406)"><path
             d="m 0,0 c -1.978,-0.22 -3.969,-1.38 -5.654,-2.373 -2.159,-1.273 -4.527,-2.785 -5.832,-4.983 -0.293,-0.496 0.283,-1.04 0.77,-0.77 2.109,1.168 3.943,2.884 5.962,4.214 1.644,1.084 3.666,2.106 4.876,3.7 C 0.183,-0.13 0.101,0.011 0,0"
             style="fill:#ffffff;fill-opacity:1;fill-rule:nonzero;stroke:none"
             id="path144" /></g><g
           id="g146"
           transform="translate(262.9209,263.522)"><path
             d="m 0,0 c -1.728,-5.592 -5.583,-12.876 -1.518,-18.371 0.469,-0.633 1.409,-0.26 1.264,0.533 -0.61,3.355 -1.103,6.202 -0.663,9.615 0.354,2.746 0.806,5.447 1.078,8.201 C 0.171,0.073 0.026,0.085 0,0"
             style="fill:#ffffff;fill-opacity:1;fill-rule:nonzero;stroke:none"
             id="path148" /></g><g
           id="g150"
           transform="translate(281.9004,259.1382)"><path
             d="M 0,0 C 3.357,-1.357 6.628,2.376 7.562,5.234 7.716,5.701 7.09,6.033 6.76,5.702 4.686,3.617 3.128,1.196 0,0.724 -0.412,0.661 -0.298,0.121 0,0"
             style="fill:#ffffff;fill-opacity:1;fill-rule:nonzero;stroke:none"
             id="path152" /></g><g
           id="g154"
           transform="translate(333.4648,340.9395)"><path
             d="m 0,0 c 4.918,-2.15 7.455,-8.133 9.133,-12.814 1.459,-4.069 1.059,-9.114 2.967,-12.88 0.162,-0.319 0.715,-0.339 0.871,0 1.998,4.366 -1.09,11.657 -2.762,15.714 C 8.225,-5.167 5.114,-1.286 0.054,0.128 -0.021,0.149 -0.075,0.032 0,0"
             style="fill:#ffffff;fill-opacity:1;fill-rule:nonzero;stroke:none"
             id="path156" /></g><g
           id="g158"
           transform="translate(357.9717,318.3984)"><path
             d="M 0,0 C 1.655,-0.469 2.811,-0.968 4.048,-2.196 5.199,-3.339 5.826,-5.026 7.31,-5.773 7.58,-5.909 7.987,-5.749 7.962,-5.398 7.831,-3.609 6.184,-1.649 4.753,-0.63 3.355,0.365 1.605,1.046 -0.024,0.192 -0.107,0.149 -0.084,0.024 0,0"
             style="fill:#ffffff;fill-opacity:1;fill-rule:nonzero;stroke:none"
             id="path160" /></g><g
           id="g162"
           transform="translate(312.1611,292.0933)"><path
             d="m 0,0 c -2.237,-5.9 -5.154,-14.274 -2.097,-20.348 0.221,-0.438 0.98,-0.243 0.94,0.255 -0.562,6.968 1.134,13.156 1.847,20 C 0.734,0.33 0.13,0.343 0,0"
             style="fill:#ffffff;fill-opacity:1;fill-rule:nonzero;stroke:none"
             id="path164" /></g><g
           id="g166"
           transform="translate(311.1113,321.4351)"><path
             d="M 0,0 C 0.817,1.263 2.209,2.291 3.508,2.996 4.896,3.75 6.5,3.799 8.001,4.158 8.353,4.242 8.42,4.758 8.102,4.929 4.821,6.697 0.271,3.392 -0.235,0.099 -0.257,-0.042 -0.084,-0.129 0,0"
             style="fill:#ffffff;fill-opacity:1;fill-rule:nonzero;stroke:none"
             id="path168" /></g><g
           id="g170"
           transform="rotate(14.632686,-992.71791,1431.5489)"><path
             d="M 0,0 C 2.509,-1.618 6.604,-2.326 8.903,0.042 9.477,0.631 8.893,1.505 8.14,1.354 6.855,1.097 5.671,0.778 4.349,0.756 3.096,0.734 1.771,1.066 0.532,1.264 -0.225,1.385 -0.691,0.446 0,0"
             style="fill:#ffffff;fill-opacity:1;fill-rule:nonzero;stroke:none"
             id="path172" /></g><g
           id="g174"
           transform="translate(313.9687,245.6465)"><path
             d="m 0,0 c -0.417,-1.521 -0.575,-3.097 -0.913,-4.636 -0.368,-1.675 -1.254,-3.192 -1.519,-4.883 -0.058,-0.372 0.318,-0.808 0.705,-0.543 C 1.097,-8.126 1.845,-3.119 1.062,0 0.929,0.534 0.143,0.519 0,0"
             style="fill:#ffffff;fill-opacity:1;fill-rule:nonzero;stroke:none"
             id="path176" /></g><g
           id="g178"
           transform="translate(223.3101,186.4336)"><path
             d="M 0,0 C 0.592,0.52 0.778,1.408 0.934,2.15 1.05,2.708 1.133,3.327 0.723,3.787 1.004,3.471 0.817,3.732 0.759,3.935 0.723,4.066 0.671,4.19 0.605,4.309 0.425,4.63 -0.041,4.61 -0.225,4.309 -0.332,4.135 -0.419,3.952 -0.514,3.771 -0.278,3.969 -0.279,3.975 -0.515,3.787 -0.591,3.704 -0.661,3.616 -0.725,3.524 -0.868,3.281 -0.912,2.944 -0.947,2.672 -0.997,2.282 -1.044,1.894 -1.089,1.504 -1.105,1.363 -1.135,1.221 -1.166,1.082 c -0.04,-0.15 -0.04,-0.301 0,-0.45 C -1.211,0.919 -1.163,0.834 -1.2,0.698 -1.397,-0.027 -0.524,-0.46 0,0"
             style="fill:#ffffff;fill-opacity:1;fill-rule:nonzero;stroke:none"
             id="path180" /></g><g
           id="g182"
           transform="translate(210.6948,147.584)"><path
             d="m 0,0 c -0.844,-4.091 -1.172,-10.105 0.667,-13.957 0.336,-0.702 1.349,-0.309 1.376,0.373 0.099,2.41 -0.588,4.855 -0.773,7.27 C 1.109,-4.207 1.04,-2.073 0.61,0 0.547,0.303 0.062,0.304 0,0"
             style="fill:#ffffff;fill-opacity:1;fill-rule:nonzero;stroke:none"
             id="path184" /></g><g
           id="g186"
           transform="translate(270.8643,202.0371)"><path
             d="m 0,0 c -1.29,-8.729 -1.11,-17.727 -1.306,-26.537 -0.041,-1.859 2.924,-1.859 2.883,0 C 1.382,-17.727 1.562,-8.729 0.271,0 0.251,0.135 0.021,0.135 0,0"
             style="fill:#ffffff;fill-opacity:1;fill-rule:nonzero;stroke:none"
             id="path188" /></g><g
           id="g190"
           transform="translate(262.8076,181.0527)"><path
             d="m 0,0 c -1.618,-10.622 -1.163,-21.826 -1.632,-32.553 -0.074,-1.707 2.714,-1.709 2.649,0 C 0.605,-21.818 1.949,-10.641 0.385,0 0.356,0.191 0.029,0.19 0,0"
             style="fill:#ffffff;fill-opacity:1;fill-rule:nonzero;stroke:none"
             id="path192" /></g><g
           id="g194"
           transform="translate(279.9209,155.5215)"><path
             d="m 0,0 c -0.867,-3.387 -0.755,-7.107 -0.892,-10.583 -0.087,-2.222 -0.486,-4.725 -0.189,-6.938 0.199,-1.492 2.121,-1.492 2.32,0 0.297,2.213 -0.102,4.716 -0.189,6.938 C 0.913,-7.107 1.025,-3.387 0.158,0 0.138,0.079 0.021,0.079 0,0"
             style="fill:#ffffff;fill-opacity:1;fill-rule:nonzero;stroke:none"
             id="path196" /></g><g
           id="g198"
           transform="translate(294.7568,204.8584)"><path
             d="m 0,0 c 0.157,-0.334 0.202,-0.732 0.31,-1.098 0.155,-0.522 0.539,-1.028 0.873,-1.446 0.713,-0.891 1.991,-2.185 3.228,-1.925 0.26,0.055 0.484,0.345 0.465,0.611 C 4.797,-2.741 3.548,-1.947 2.729,-1.313 2.328,-1.004 1.92,-0.704 1.521,-0.393 1.16,-0.11 0.731,0.029 0.442,0.341 0.211,0.588 -0.129,0.274 0,0"
             style="fill:#ffffff;fill-opacity:1;fill-rule:nonzero;stroke:none"
             id="path200" /></g><g
           id="g202"
           transform="translate(376.3301,261.0469)"><path
             d="M 0,0 C -0.479,-1.386 -0.489,-2.851 -0.626,-4.301 -0.806,-6.204 -1.743,-7.652 -2.327,-9.41 -2.485,-9.884 -1.946,-10.159 -1.57,-9.992 1.764,-8.515 1.357,-2.812 0.34,0 0.279,0.165 0.059,0.169 0,0"
             style="fill:#ffffff;fill-opacity:1;fill-rule:nonzero;stroke:none"
             id="path204" /></g><g
           id="g206"
           transform="translate(319.1992,220.2764)"><path
             d="M 0,0 C 1.136,0.253 2.395,0.128 3.496,-0.208 4.708,-0.577 5.546,-1.78 6.801,-1.921 7.089,-1.953 7.343,-1.699 7.422,-1.447 7.974,0.286 5.777,1.521 4.459,2.011 2.801,2.627 0.837,2.412 -0.578,1.371 -1.251,0.876 -0.866,-0.192 0,0"
             style="fill:#ffffff;fill-opacity:1;fill-rule:nonzero;stroke:none"
             id="path208" /></g><g
           id="g210"
           transform="translate(304.1367,215.5)"><path
             d="M 0,0 C -0.229,-2.95 1.513,-6.448 4.104,-7.945 4.561,-8.209 5.053,-7.689 4.809,-7.24 4.173,-6.069 3.338,-5.029 2.645,-3.893 1.857,-2.603 1.325,-1.177 0.677,0.184 0.508,0.538 0.025,0.327 0,0"
             style="fill:#ffffff;fill-opacity:1;fill-rule:nonzero;stroke:none"
             id="path212" /></g><g
           id="g214"
           transform="translate(337.5,209.2656)"><path
             d="m 0,0 c 1.718,0.181 2.965,0.356 4.531,-0.556 1.724,-1.004 2.824,-2.991 3.708,-4.702 1.543,-2.99 2.205,-6.344 2.967,-9.589 0.066,-0.284 0.531,-0.299 0.588,0 0.746,3.968 -1.288,8.587 -3.32,11.907 C 6.825,-0.247 2.933,3.172 -0.166,0.4 -0.311,0.271 -0.204,-0.021 0,0"
             style="fill:#ffffff;fill-opacity:1;fill-rule:nonzero;stroke:none"
             id="path216" /></g><g
           id="g218"
           transform="translate(341.6953,184.584)"><path
             d="m 0,0 c -0.937,-6.189 -0.959,-12.826 -0.996,-19.084 -0.01,-1.678 2.611,-1.678 2.601,0 C 1.568,-12.826 1.547,-6.189 0.609,0 0.563,0.304 0.046,0.304 0,0"
             style="fill:#ffffff;fill-opacity:1;fill-rule:nonzero;stroke:none"
             id="path220" /></g><g
           id="g222"
           transform="translate(362.3008,224)"><path
             d="m 0,0 c -0.399,-3.267 -0.678,-6.53 -0.919,-9.813 -0.25,-3.388 -0.849,-7.038 -0.015,-10.362 0.159,-0.631 1.103,-0.623 1.266,0 0.755,2.888 0.452,5.969 0.484,8.939 C 0.856,-7.474 0.817,-3.741 0.398,0 0.369,0.258 0.031,0.255 0,0"
             style="fill:#ffffff;fill-opacity:1;fill-rule:nonzero;stroke:none"
             id="path224" /></g></g></g><g
       aria-label="EIGHTKB"
       transform="matrix(1,0,0,-1,-17.366103,-0.36128481)"
       id="text1359"
       style="font-style:normal;font-weight:normal;font-size:85.4414px;line-height:1.25;font-family:sans-serif;fill:#000000;fill-opacity:1;stroke:none;stroke-width:2.00253"><path
         d="m 105.9759,-233.19301 v 7.05058 H 72.475191 v -59.74222 H 105.9759 v 7.00886 H 85.700251 v 19.48298 H 99.7597 v 6.67511 H 85.700251 v 19.52469 z"
         style="font-style:normal;font-variant:normal;font-weight:normal;font-stretch:normal;font-size:85.4414px;font-family:'Systematic J';-inkscape-font-specification:'Systematic J';fill:#ffffff;fill-opacity:1;stroke:#000000;stroke-width:2.625;stroke-miterlimit:4;stroke-dasharray:none;stroke-opacity:1"
         id="path1361" /><path
         d="m 138.60049,-226.14243 h -13.22506 v -59.74222 h 13.22506 z"
         style="font-style:normal;font-variant:normal;font-weight:normal;font-stretch:normal;font-size:85.4414px;font-family:'Systematic J';-inkscape-font-specification:'Systematic J';fill:#ffffff;fill-opacity:1;stroke:#000000;stroke-width:2.625;stroke-miterlimit:4;stroke-dasharray:none;stroke-opacity:1"
         id="path1363" /><path
         d="m 185.2011,-252.7177 h -6.96714 v -6.67511 h 19.77501 v 24.94822 l -8.26045,8.30216 h -23.07085 l -8.34388,-8.30216 v -43.1379 l 8.34388,-8.30216 h 23.07085 l 8.26045,8.30216 v 5.38181 h -6.59167 v -6.67511 h -20.27565 v 46.05826 h 14.05945 z"
         style="font-style:normal;font-variant:normal;font-weight:normal;font-stretch:normal;font-size:85.4414px;font-family:'Systematic J';-inkscape-font-specification:'Systematic J';fill:#ffffff;fill-opacity:1;stroke:#000000;stroke-width:2.625;stroke-miterlimit:4;stroke-dasharray:none;stroke-opacity:1"
         id="path1365" /><path
         d="m 224.41737,-226.14243 h -13.22506 v -59.74222 h 13.22506 v 26.49184 h 13.22506 v -26.49184 h 13.22506 v 59.74222 h -13.22506 v -26.57527 h -13.22506 z"
         style="font-style:normal;font-variant:normal;font-weight:normal;font-stretch:normal;font-size:85.4414px;font-family:'Systematic J';-inkscape-font-specification:'Systematic J';fill:#ffffff;fill-opacity:1;stroke:#000000;stroke-width:2.625;stroke-miterlimit:4;stroke-dasharray:none;stroke-opacity:1"
         id="path1367" /><path
         d="m 284.36819,-226.14243 h -13.22506 v -51.89897 h -13.22506 v -7.84325 h 40.05066 v 7.84325 h -13.60054 z"
         style="font-style:normal;font-variant:normal;font-weight:normal;font-stretch:normal;font-size:85.4414px;font-family:'Systematic J';-inkscape-font-specification:'Systematic J';fill:#ffffff;fill-opacity:1;stroke:#000000;stroke-width:2.625;stroke-miterlimit:4;stroke-dasharray:none;stroke-opacity:1"
         id="path1369" /><path
         d="m 323.50102,-226.14243 h -13.22506 v -59.74222 h 13.22506 v 24.86478 l 24.82306,-24.86478 h 8.26045 v 4.92289 l -23.15429,23.23772 v 3.33756 l 23.48804,23.23772 v 5.00633 h -8.34388 l -25.07338,-24.86478 z"
         style="font-style:normal;font-variant:normal;font-weight:normal;font-stretch:normal;font-size:85.4414px;font-family:'Systematic J';-inkscape-font-specification:'Systematic J';fill:#6d6d6d;fill-opacity:1;stroke:#000000;stroke-width:2.625;stroke-miterlimit:4;stroke-dasharray:none;stroke-opacity:1"
         id="path1371" /><path
         d="m 401.14087,-226.14243 h -31.41473 v -59.74222 h 31.41473 l 8.26045,8.30216 v 18.27312 h -3.71303 v 6.59167 h 3.71303 v 18.27311 z M 382.9512,-252.7177 v 19.90017 h 13.22506 v -19.90017 z m 0,-26.57528 v 19.90017 h 13.22506 v -19.90017 z"
         style="font-style:normal;font-variant:normal;font-weight:normal;font-stretch:normal;font-size:85.4414px;font-family:'Systematic J';-inkscape-font-specification:'Systematic J';fill:#6d6d6d;fill-opacity:1;stroke:#000000;stroke-width:2.625;stroke-miterlimit:4;stroke-dasharray:none;stroke-opacity:1"
         id="path1373" /></g></g></svg>
